{
.appVersion = "3108";
.formatVersion = 3;
axes = (
{
name = Weight;
tag = wght;
}
);
date = "2022-05-01 20:04:31 +0000";
familyName = pauschal;
fontMaster = (
{
axesValues = (
200
);
iconName = SemiLight;
id = "13D2CB4F-7007-4A2A-A7B7-7C5789877F78";
metricValues = (
{
pos = 950;
},
{
pos = 668;
},
{
pos = 496;
},
{
},
{
pos = -290;
},
{
}
);
name = Leicht;
},
{
axesValues = (
400
);
id = m01;
metricValues = (
{
pos = 950;
},
{
pos = 668;
},
{
pos = 496;
},
{
},
{
pos = -290;
},
{
}
);
name = Normal;
},
{
axesValues = (
600
);
iconName = SemiBold;
id = "FB38E465-C1A6-43CF-BE4B-F46E2783E3B9";
metricValues = (
{
pos = 950;
},
{
pos = 668;
},
{
pos = 496;
},
{
},
{
pos = -290;
},
{
}
);
name = Halbfett;
}
);
glyphs = (
{
glyphname = A;
lastChange = "2022-05-03 21:55:39 +0000";
layers = (
{
layerId = m01;
shapes = (
{
closed = 1;
nodes = (
(257,668,l),
(10,0,l),
(110,0,l),
(172,167,l),
(456,167,l),
(518,0,l),
(618,0,l),
(370,668,l)
);
},
{
closed = 1;
nodes = (
(314,551,l),
(422,261,l),
(206,261,l)
);
}
);
width = 628;
},
{
layerId = "FB38E465-C1A6-43CF-BE4B-F46E2783E3B9";
shapes = (
{
closed = 1;
nodes = (
(253,668,l),
(5,0,l),
(134,0,l),
(190,154,l),
(456,154,l),
(513,0,l),
(641,0,l),
(394,668,l)
);
},
{
closed = 1;
nodes = (
(323,513,l),
(412,274,l),
(235,274,l)
);
}
);
width = 646;
},
{
layerId = "13D2CB4F-7007-4A2A-A7B7-7C5789877F78";
shapes = (
{
closed = 1;
nodes = (
(257,668,l),
(10,0,l),
(81,0,l),
(148,180,l),
(451,180,l),
(517,0,l),
(589,0,l),
(341,668,l)
);
},
{
closed = 1;
nodes = (
(299,590,l),
(426,247,l),
(172,247,l)
);
}
);
width = 599;
}
);
unicode = 65;
},
{
glyphname = B;
lastChange = "2022-05-03 22:01:01 +0000";
layers = (
{
layerId = m01;
shapes = (
{
closed = 1;
nodes = (
(170,94,l),
(170,301,l),
(370,301,l),
(436,301,o),
(484,256,o),
(484,194,c),
(484,132,o),
(435,94,o),
(357,94,c)
);
},
{
closed = 1;
nodes = (
(330,574,l),
(395,574,o),
(430,544,o),
(430,488,c),
(430,445,o),
(408,394,o),
(344,394,c),
(170,394,l),
(170,574,l)
);
},
{
closed = 1;
nodes = (
(509,396,o),
(524,439,o),
(524,488,c),
(524,587,o),
(456,668,o),
(330,668,c),
(76,668,l),
(76,0,l),
(357,0,l),
(487,0,o),
(577,80,o),
(577,194,c),
(577,267,o),
(540,329,o),
(482,364,c)
);
}
);
width = 615;
},
{
layerId = "FB38E465-C1A6-43CF-BE4B-F46E2783E3B9";
shapes = (
{
closed = 1;
nodes = (
(197,120,l),
(197,287,l),
(384,287,l),
(441,287,o),
(484,250,o),
(484,200,c),
(484,152,o),
(439,120,o),
(370,120,c)
);
},
{
closed = 1;
nodes = (
(344,548,l),
(400,548,o),
(430,524,o),
(430,481,c),
(430,454,o),
(415,407,o),
(357,407,c),
(197,407,l),
(197,548,l)
);
},
{
closed = 1;
nodes = (
(539,401,o),
(551,442,o),
(551,481,c),
(551,590,o),
(468,668,o),
(344,668,c),
(76,668,l),
(76,0,l),
(370,0,l),
(506,0,o),
(604,84,o),
(604,200,c),
(604,270,o),
(570,330,o),
(516,367,c)
);
}
);
width = 642;
},
{
layerId = "13D2CB4F-7007-4A2A-A7B7-7C5789877F78";
shapes = (
{
closed = 1;
nodes = (
(143,67,l),
(143,314,l),
(356,314,l),
(431,314,o),
(483,262,o),
(483,187,c),
(483,112,o),
(431,67,o),
(343,67,c)
);
},
{
closed = 1;
nodes = (
(316,601,l),
(410,601,o),
(430,543,o),
(430,494,c),
(430,411,o),
(378,381,o),
(330,381,c),
(143,381,l),
(143,601,l)
);
},
{
closed = 1;
nodes = (
(478,393,o),
(497,439,o),
(497,494,c),
(497,601,o),
(428,668,o),
(316,668,c),
(76,668,l),
(76,0,l),
(343,0,l),
(467,0,o),
(550,75,o),
(550,187,c),
(550,266,o),
(510,330,o),
(447,361,c)
);
}
);
width = 588;
}
);
unicode = 66;
},
{
glyphname = C;
lastChange = "2022-05-03 22:02:40 +0000";
layers = (
{
layerId = m01;
shapes = (
{
closed = 1;
nodes = (
(543,193,l),
(509,121,o),
(444,81,o),
(357,81,c),
(223,81,o),
(143,175,o),
(143,334,c),
(143,493,o),
(223,588,o),
(357,588,c),
(444,588,o),
(509,548,o),
(543,476,c),
(635,499,l),
(588,613,o),
(489,682,o),
(357,682,c),
(171,682,o),
(50,545,o),
(50,334,c),
(50,123,o),
(171,-13,o),
(357,-13,c),
(489,-13,o),
(588,55,o),
(635,170,c)
);
}
);
width = 673;
},
{
layerId = "FB38E465-C1A6-43CF-BE4B-F46E2783E3B9";
shapes = (
{
closed = 1;
nodes = (
(540,197,l),
(507,139,o),
(449,107,o),
(371,107,c),
(243,107,o),
(170,190,o),
(170,334,c),
(170,479,o),
(243,561,o),
(371,561,c),
(449,561,o),
(507,530,o),
(540,472,c),
(659,502,l),
(610,615,o),
(507,682,o),
(371,682,c),
(176,682,o),
(50,545,o),
(50,334,c),
(50,123,o),
(176,-13,o),
(371,-13,c),
(507,-13,o),
(610,54,o),
(659,167,c)
);
}
);
width = 697;
},
{
layerId = "13D2CB4F-7007-4A2A-A7B7-7C5789877F78";
shapes = (
{
closed = 1;
nodes = (
(545,189,l),
(510,103,o),
(439,54,o),
(344,54,c),
(204,54,o),
(117,161,o),
(117,334,c),
(117,507,o),
(204,615,o),
(344,615,c),
(439,615,o),
(510,566,o),
(545,480,c),
(611,496,l),
(567,612,o),
(472,682,o),
(344,682,c),
(166,682,o),
(50,545,o),
(50,334,c),
(50,123,o),
(166,-13,o),
(344,-13,c),
(472,-13,o),
(567,56,o),
(611,173,c)
);
}
);
width = 649;
}
);
unicode = 67;
},
{
glyphname = D;
lastChange = "2022-05-03 22:03:39 +0000";
layers = (
{
layerId = m01;
shapes = (
{
closed = 1;
nodes = (
(169,94,l),
(169,574,l),
(310,574,l),
(448,574,o),
(524,489,o),
(524,334,c),
(524,179,o),
(448,94,o),
(310,94,c)
);
},
{
closed = 1;
nodes = (
(474,640,o),
(399,668,o),
(310,668,c),
(76,668,l),
(76,0,l),
(310,0,l),
(399,0,o),
(474,28,o),
(528,82,c),
(587,141,o),
(617,226,o),
(617,334,c),
(617,442,o),
(587,527,o),
(528,586,c)
);
}
);
width = 667;
},
{
layerId = "FB38E465-C1A6-43CF-BE4B-F46E2783E3B9";
shapes = (
{
closed = 1;
nodes = (
(196,120,l),
(196,548,l),
(323,548,l),
(456,548,o),
(524,476,o),
(524,334,c),
(524,192,o),
(456,120,o),
(323,120,c)
);
},
{
closed = 1;
nodes = (
(494,640,o),
(416,668,o),
(323,668,c),
(76,668,l),
(76,0,l),
(323,0,l),
(416,0,o),
(494,28,o),
(550,81,c),
(612,140,o),
(644,225,o),
(644,334,c),
(644,443,o),
(612,528,o),
(550,587,c)
);
}
);
width = 694;
},
{
layerId = "13D2CB4F-7007-4A2A-A7B7-7C5789877F78";
shapes = (
{
closed = 1;
nodes = (
(143,67,l),
(143,601,l),
(297,601,l),
(441,601,o),
(524,504,o),
(524,334,c),
(524,164,o),
(441,67,o),
(297,67,c)
);
},
{
closed = 1;
nodes = (
(455,639,o),
(382,668,o),
(297,668,c),
(76,668,l),
(76,0,l),
(297,0,l),
(382,0,o),
(455,29,o),
(507,83,c),
(562,142,o),
(591,226,o),
(591,334,c),
(591,442,o),
(562,526,o),
(507,585,c)
);
}
);
width = 641;
}
);
unicode = 68;
},
{
glyphname = E;
lastChange = "2022-05-03 22:04:21 +0000";
layers = (
{
layerId = m01;
shapes = (
{
closed = 1;
nodes = (
(76,668,l),
(76,0,l),
(490,0,l),
(490,94,l),
(169,94,l),
(169,301,l),
(356,301,l),
(356,394,l),
(169,394,l),
(169,574,l),
(490,574,l),
(490,668,l)
);
}
);
width = 528;
},
{
layerId = "FB38E465-C1A6-43CF-BE4B-F46E2783E3B9";
shapes = (
{
closed = 1;
nodes = (
(76,668,l),
(76,0,l),
(503,0,l),
(503,120,l),
(196,120,l),
(196,287,l),
(370,287,l),
(370,407,l),
(196,407,l),
(196,548,l),
(503,548,l),
(503,668,l)
);
}
);
width = 541;
},
{
layerId = "13D2CB4F-7007-4A2A-A7B7-7C5789877F78";
shapes = (
{
closed = 1;
nodes = (
(76,668,l),
(76,0,l),
(477,0,l),
(477,67,l),
(143,67,l),
(143,314,l),
(343,314,l),
(343,381,l),
(143,381,l),
(143,601,l),
(477,601,l),
(477,668,l)
);
}
);
width = 515;
}
);
unicode = 69;
},
{
glyphname = F;
lastChange = "2022-05-03 22:05:12 +0000";
layers = (
{
layerId = m01;
shapes = (
{
closed = 1;
nodes = (
(76,668,l),
(76,0,l),
(170,0,l),
(170,301,l),
(357,301,l),
(357,394,l),
(170,394,l),
(170,574,l),
(491,574,l),
(491,668,l)
);
}
);
width = 529;
},
{
layerId = "FB38E465-C1A6-43CF-BE4B-F46E2783E3B9";
shapes = (
{
closed = 1;
nodes = (
(76,668,l),
(76,0,l),
(197,0,l),
(197,287,l),
(370,287,l),
(370,407,l),
(197,407,l),
(197,548,l),
(504,548,l),
(504,668,l)
);
}
);
width = 542;
},
{
layerId = "13D2CB4F-7007-4A2A-A7B7-7C5789877F78";
shapes = (
{
closed = 1;
nodes = (
(76,668,l),
(76,0,l),
(143,0,l),
(143,314,l),
(343,314,l),
(343,381,l),
(143,381,l),
(143,601,l),
(477,601,l),
(477,668,l)
);
}
);
width = 515;
}
);
unicode = 70;
},
{
glyphname = G;
lastChange = "2022-05-03 22:05:42 +0000";
layers = (
{
layerId = m01;
shapes = (
{
closed = 1;
nodes = (
(358,348,l),
(358,254,l),
(551,254,l),
(551,212,l),
(520,128,o),
(452,81,o),
(358,81,c),
(224,81,o),
(144,175,o),
(144,334,c),
(144,493,o),
(224,588,o),
(358,588,c),
(445,588,o),
(509,548,o),
(543,476,c),
(635,499,l),
(589,613,o),
(490,682,o),
(358,682,c),
(171,682,o),
(50,545,o),
(50,334,c),
(50,123,o),
(171,-13,o),
(358,-13,c),
(435,-13,o),
(501,10,o),
(551,53,c),
(551,0,l),
(645,0,l),
(645,348,l)
);
}
);
width = 713;
},
{
layerId = "FB38E465-C1A6-43CF-BE4B-F46E2783E3B9";
shapes = (
{
closed = 1;
nodes = (
(370,348,l),
(370,227,l),
(551,227,l),
(551,220,l),
(521,147,o),
(459,107,o),
(370,107,c),
(243,107,o),
(170,190,o),
(170,334,c),
(170,479,o),
(243,561,o),
(370,561,c),
(449,561,o),
(507,530,o),
(539,472,c),
(659,502,l),
(609,615,o),
(507,682,o),
(370,682,c),
(175,682,o),
(50,545,o),
(50,334,c),
(50,123,o),
(175,-13,o),
(370,-13,c),
(440,-13,o),
(501,5,o),
(551,37,c),
(551,0,l),
(671,0,l),
(671,348,l)
);
}
);
width = 739;
},
{
layerId = "13D2CB4F-7007-4A2A-A7B7-7C5789877F78";
shapes = (
{
closed = 1;
nodes = (
(344,348,l),
(344,281,l),
(551,281,l),
(551,205,l),
(518,109,o),
(445,54,o),
(344,54,c),
(204,54,o),
(117,161,o),
(117,334,c),
(117,507,o),
(204,615,o),
(344,615,c),
(439,615,o),
(509,566,o),
(545,480,c),
(610,496,l),
(566,612,o),
(471,682,o),
(344,682,c),
(165,682,o),
(50,545,o),
(50,334,c),
(50,123,o),
(165,-13,o),
(344,-13,c),
(429,-13,o),
(500,18,o),
(551,74,c),
(551,0,l),
(618,0,l),
(618,348,l)
);
}
);
width = 686;
}
);
unicode = 71;
},
{
glyphname = H;
lastChange = "2022-05-03 22:06:04 +0000";
layers = (
{
layerId = m01;
shapes = (
{
closed = 1;
nodes = (
(484,668,l),
(484,394,l),
(170,394,l),
(170,668,l),
(76,668,l),
(76,0,l),
(170,0,l),
(170,301,l),
(484,301,l),
(484,0,l),
(577,0,l),
(577,668,l)
);
}
);
width = 653;
},
{
layerId = "FB38E465-C1A6-43CF-BE4B-F46E2783E3B9";
shapes = (
{
closed = 1;
nodes = (
(484,668,l),
(484,407,l),
(197,407,l),
(197,668,l),
(76,668,l),
(76,0,l),
(197,0,l),
(197,287,l),
(484,287,l),
(484,0,l),
(604,0,l),
(604,668,l)
);
}
);
width = 680;
},
{
layerId = "13D2CB4F-7007-4A2A-A7B7-7C5789877F78";
shapes = (
{
closed = 1;
nodes = (
(483,668,l),
(483,381,l),
(143,381,l),
(143,668,l),
(76,668,l),
(76,0,l),
(143,0,l),
(143,314,l),
(483,314,l),
(483,0,l),
(550,0,l),
(550,668,l)
);
}
);
width = 626;
}
);
unicode = 72;
},
{
glyphname = I;
lastChange = "2022-05-03 22:06:55 +0000";
layers = (
{
layerId = m01;
shapes = (
{
closed = 1;
nodes = (
(66,668,l),
(66,574,l),
(159,574,l),
(159,94,l),
(66,94,l),
(66,0,l),
(346,0,l),
(346,94,l),
(253,94,l),
(253,574,l),
(346,574,l),
(346,668,l)
);
}
);
width = 412;
},
{
layerId = "FB38E465-C1A6-43CF-BE4B-F46E2783E3B9";
shapes = (
{
closed = 1;
nodes = (
(66,668,l),
(66,548,l),
(146,548,l),
(146,120,l),
(66,120,l),
(66,0,l),
(347,0,l),
(347,120,l),
(266,120,l),
(266,548,l),
(347,548,l),
(347,668,l)
);
}
);
width = 413;
},
{
layerId = "13D2CB4F-7007-4A2A-A7B7-7C5789877F78";
shapes = (
{
closed = 1;
nodes = (
(66,668,l),
(66,601,l),
(173,601,l),
(173,67,l),
(66,67,l),
(66,0,l),
(346,0,l),
(346,67,l),
(239,67,l),
(239,601,l),
(346,601,l),
(346,668,l)
);
}
);
width = 412;
}
);
unicode = 73;
},
{
glyphname = J;
lastChange = "2022-05-03 22:07:35 +0000";
layers = (
{
layerId = m01;
shapes = (
{
closed = 1;
nodes = (
(94,-13,o),
(15,69,o),
(15,201,c),
(108,201,l),
(108,121,o),
(146,81,o),
(222,81,c),
(297,81,o),
(335,121,o),
(335,201,c),
(335,668,l),
(429,668,l),
(429,201,l),
(429,69,o),
(350,-13,o),
(222,-13,c)
);
}
);
width = 505;
},
{
layerId = "FB38E465-C1A6-43CF-BE4B-F46E2783E3B9";
shapes = (
{
closed = 1;
nodes = (
(99,-13,o),
(15,69,o),
(15,201,c),
(135,201,l),
(135,118,o),
(189,107,o),
(235,107,c),
(282,107,o),
(335,118,o),
(335,201,c),
(335,668,l),
(456,668,l),
(456,201,l),
(456,69,o),
(371,-13,o),
(235,-13,c)
);
}
);
width = 532;
},
{
layerId = "13D2CB4F-7007-4A2A-A7B7-7C5789877F78";
shapes = (
{
closed = 1;
nodes = (
(89,-13,o),
(15,69,o),
(15,201,c),
(82,201,l),
(82,146,o),
(99,54,o),
(209,54,c),
(319,54,o),
(336,146,o),
(336,201,c),
(336,668,l),
(403,668,l),
(403,201,l),
(403,69,o),
(328,-13,o),
(209,-13,c)
);
}
);
width = 479;
}
);
unicode = 74;
},
{
glyphname = K;
lastChange = "2022-05-03 22:07:59 +0000";
layers = (
{
layerId = m01;
shapes = (
{
closed = 1;
nodes = (
(467,668,l),
(169,336,l),
(169,668,l),
(76,668,l),
(76,0,l),
(169,0,l),
(169,196,l),
(247,282,l),
(470,0,l),
(590,0,l),
(310,353,l),
(593,668,l)
);
}
);
width = 603;
},
{
layerId = "FB38E465-C1A6-43CF-BE4B-F46E2783E3B9";
shapes = (
{
closed = 1;
nodes = (
(463,668,l),
(196,371,l),
(196,668,l),
(76,668,l),
(76,0,l),
(196,0,l),
(196,191,l),
(260,261,l),
(467,0,l),
(620,0,l),
(341,352,l),
(624,668,l)
);
}
);
width = 634;
},
{
layerId = "13D2CB4F-7007-4A2A-A7B7-7C5789877F78";
shapes = (
{
closed = 1;
nodes = (
(472,668,l),
(143,301,l),
(143,668,l),
(76,668,l),
(76,0,l),
(143,0,l),
(143,201,l),
(235,303,l),
(475,0,l),
(560,0,l),
(280,353,l),
(562,668,l)
);
}
);
width = 572;
}
);
unicode = 75;
},
{
glyphname = L;
lastChange = "2022-05-03 22:08:19 +0000";
layers = (
{
layerId = m01;
shapes = (
{
closed = 1;
nodes = (
(76,668,l),
(76,0,l),
(490,0,l),
(490,94,l),
(169,94,l),
(169,668,l)
);
}
);
width = 500;
},
{
layerId = "FB38E465-C1A6-43CF-BE4B-F46E2783E3B9";
shapes = (
{
closed = 1;
nodes = (
(76,668,l),
(76,0,l),
(503,0,l),
(503,120,l),
(196,120,l),
(196,668,l)
);
}
);
width = 513;
},
{
layerId = "13D2CB4F-7007-4A2A-A7B7-7C5789877F78";
shapes = (
{
closed = 1;
nodes = (
(76,668,l),
(76,0,l),
(477,0,l),
(477,67,l),
(143,67,l),
(143,668,l)
);
}
);
width = 487;
}
);
unicode = 76;
},
{
glyphname = M;
lastChange = "2022-05-03 22:10:37 +0000";
layers = (
{
layerId = m01;
shapes = (
{
closed = 1;
nodes = (
(594,668,l),
(410,163,l),
(226,668,l),
(76,668,l),
(76,0,l),
(169,0,l),
(169,550,l),
(360,27,l),
(460,27,l),
(650,550,l),
(650,0,l),
(744,0,l),
(744,668,l)
);
}
);
width = 820;
},
{
layerId = "FB38E465-C1A6-43CF-BE4B-F46E2783E3B9";
shapes = (
{
closed = 1;
nodes = (
(593,668,l),
(423,202,l),
(253,668,l),
(76,668,l),
(76,0,l),
(196,0,l),
(196,474,l),
(359,27,l),
(487,27,l),
(650,474,l),
(650,0,l),
(771,0,l),
(771,668,l)
);
}
);
width = 847;
},
{
layerId = "13D2CB4F-7007-4A2A-A7B7-7C5789877F78";
shapes = (
{
closed = 1;
nodes = (
(581,668,l),
(383,124,l),
(185,668,l),
(76,668,l),
(76,0,l),
(143,0,l),
(143,589,l),
(347,27,l),
(419,27,l),
(623,589,l),
(623,0,l),
(690,0,l),
(690,668,l)
);
}
);
width = 766;
}
);
unicode = 77;
},
{
glyphname = N;
lastChange = "2022-05-03 22:10:57 +0000";
layers = (
{
layerId = m01;
shapes = (
{
closed = 1;
nodes = (
(524,668,l),
(524,100,l),
(223,668,l),
(76,668,l),
(76,0,l),
(170,0,l),
(170,568,l),
(471,0,l),
(618,0,l),
(618,668,l)
);
}
);
width = 694;
},
{
layerId = "FB38E465-C1A6-43CF-BE4B-F46E2783E3B9";
shapes = (
{
closed = 1;
nodes = (
(523,668,l),
(523,154,l),
(250,668,l),
(76,668,l),
(76,0,l),
(196,0,l),
(196,514,l),
(468,0,l),
(643,0,l),
(643,668,l)
);
}
);
width = 719;
},
{
layerId = "13D2CB4F-7007-4A2A-A7B7-7C5789877F78";
shapes = (
{
closed = 1;
nodes = (
(497,668,l),
(497,71,l),
(181,668,l),
(76,668,l),
(76,0,l),
(143,0,l),
(143,597,l),
(459,0,l),
(564,0,l),
(564,668,l)
);
}
);
width = 640;
}
);
unicode = 78;
},
{
glyphname = O;
lastChange = "2022-05-03 22:11:17 +0000";
layers = (
{
layerId = m01;
shapes = (
{
closed = 1;
nodes = (
(223,588,o),
(144,493,o),
(144,334,c),
(144,175,o),
(223,81,o),
(357,81,c),
(491,81,o),
(571,175,o),
(571,334,c),
(571,493,o),
(491,588,o),
(357,588,c)
);
},
{
closed = 1;
nodes = (
(171,-13,o),
(50,123,o),
(50,334,c),
(50,545,o),
(171,682,o),
(357,682,c),
(544,682,o),
(665,545,o),
(665,334,c),
(665,123,o),
(544,-13,o),
(357,-13,c)
);
}
);
width = 715;
},
{
layerId = "FB38E465-C1A6-43CF-BE4B-F46E2783E3B9";
shapes = (
{
closed = 1;
nodes = (
(243,561,o),
(170,479,o),
(170,334,c),
(170,190,o),
(243,107,o),
(371,107,c),
(498,107,o),
(571,190,o),
(571,334,c),
(571,479,o),
(498,561,o),
(371,561,c)
);
},
{
closed = 1;
nodes = (
(176,-13,o),
(50,123,o),
(50,334,c),
(50,545,o),
(176,682,o),
(371,682,c),
(565,682,o),
(691,545,o),
(691,334,c),
(691,123,o),
(565,-13,o),
(371,-13,c)
);
}
);
width = 741;
},
{
layerId = "13D2CB4F-7007-4A2A-A7B7-7C5789877F78";
shapes = (
{
closed = 1;
nodes = (
(203,615,o),
(116,507,o),
(116,334,c),
(116,161,o),
(203,54,o),
(343,54,c),
(484,54,o),
(571,161,o),
(571,334,c),
(571,507,o),
(484,615,o),
(343,615,c)
);
},
{
closed = 1;
nodes = (
(165,-13,o),
(50,123,o),
(50,334,c),
(50,545,o),
(165,682,o),
(343,682,c),
(522,682,o),
(637,545,o),
(637,334,c),
(637,123,o),
(522,-13,o),
(343,-13,c)
);
}
);
width = 687;
}
);
unicode = 79;
},
{
glyphname = P;
lastChange = "2022-05-03 22:11:36 +0000";
layers = (
{
layerId = m01;
shapes = (
{
closed = 1;
nodes = (
(143,367,l),
(143,574,l),
(310,574,l),
(386,574,o),
(424,541,o),
(424,474,c),
(424,449,o),
(417,367,o),
(324,367,c)
);
},
{
closed = 1;
nodes = (
(50,668,l),
(50,0,l),
(143,0,l),
(143,274,l),
(324,274,l),
(438,274,o),
(517,356,o),
(517,474,c),
(517,592,o),
(436,668,o),
(310,668,c)
);
}
);
width = 567;
},
{
layerId = "FB38E465-C1A6-43CF-BE4B-F46E2783E3B9";
shapes = (
{
closed = 1;
nodes = (
(170,381,l),
(170,548,l),
(324,548,l),
(390,548,o),
(424,521,o),
(424,468,c),
(424,426,o),
(401,381,o),
(337,381,c)
);
},
{
closed = 1;
nodes = (
(50,668,l),
(50,0,l),
(170,0,l),
(170,261,l),
(337,261,l),
(457,261,o),
(544,348,o),
(544,468,c),
(544,587,o),
(455,668,o),
(324,668,c)
);
}
);
width = 594;
},
{
layerId = "13D2CB4F-7007-4A2A-A7B7-7C5789877F78";
shapes = (
{
closed = 1;
nodes = (
(117,354,l),
(117,601,l),
(298,601,l),
(382,601,o),
(424,561,o),
(424,481,c),
(424,401,o),
(382,354,o),
(311,354,c)
);
},
{
closed = 1;
nodes = (
(50,668,l),
(50,0,l),
(117,0,l),
(117,287,l),
(311,287,l),
(419,287,o),
(491,365,o),
(491,481,c),
(491,598,o),
(419,668,o),
(298,668,c)
);
}
);
width = 541;
}
);
unicode = 80;
},
{
glyphname = Q;
lastChange = "2022-05-03 22:11:55 +0000";
layers = (
{
layerId = m01;
shapes = (
{
closed = 1;
nodes = (
(223,80,o),
(144,175,o),
(144,334,c),
(144,493,o),
(223,588,o),
(357,588,c),
(491,588,o),
(571,493,o),
(571,334,c),
(571,280,o),
(562,233,o),
(544,195,c),
(436,295,l),
(372,227,l),
(486,121,l),
(452,94,o),
(409,80,o),
(357,80,c)
);
},
{
closed = 1;
nodes = (
(716,35,l),
(615,129,l),
(647,184,o),
(665,254,o),
(665,334,c),
(665,545,o),
(544,682,o),
(357,682,c),
(171,682,o),
(50,545,o),
(50,334,c),
(50,123,o),
(171,-13,o),
(357,-13,c),
(437,-13,o),
(504,12,o),
(555,56,c),
(653,-34,l)
);
}
);
width = 716;
},
{
layerId = "FB38E465-C1A6-43CF-BE4B-F46E2783E3B9";
shapes = (
{
closed = 1;
nodes = (
(243,107,o),
(170,190,o),
(170,334,c),
(170,478,o),
(243,561,o),
(371,561,c),
(498,561,o),
(571,478,o),
(571,334,c),
(571,290,o),
(564,251,o),
(551,219,c),
(458,305,l),
(376,217,l),
(471,129,l),
(442,115,o),
(409,107,o),
(371,107,c)
);
},
{
closed = 1;
nodes = (
(739,44,l),
(642,134,l),
(674,188,o),
(691,256,o),
(691,334,c),
(691,545,o),
(565,681,o),
(371,681,c),
(176,681,o),
(50,545,o),
(50,334,c),
(50,123,o),
(176,-13,o),
(371,-13,c),
(446,-13,o),
(511,7,o),
(562,44,c),
(657,-44,l)
);
}
);
width = 739;
},
{
layerId = "13D2CB4F-7007-4A2A-A7B7-7C5789877F78";
shapes = (
{
closed = 1;
nodes = (
(203,54,o),
(116,161,o),
(116,334,c),
(116,508,o),
(203,615,o),
(343,615,c),
(484,615,o),
(571,508,o),
(571,334,c),
(571,270,o),
(559,215,o),
(536,171,c),
(413,285,l),
(367,237,l),
(498,116,l),
(459,76,o),
(407,54,o),
(343,54,c)
);
},
{
closed = 1;
nodes = (
(694,25,l),
(587,124,l),
(619,180,o),
(637,251,o),
(637,334,c),
(637,545,o),
(522,682,o),
(343,682,c),
(165,682,o),
(50,545,o),
(50,334,c),
(50,123,o),
(165,-13,o),
(343,-13,c),
(427,-13,o),
(496,17,o),
(547,70,c),
(648,-24,l)
);
}
);
width = 694;
}
);
unicode = 81;
},
{
glyphname = R;
lastChange = "2022-05-03 22:12:24 +0000";
layers = (
{
layerId = m01;
shapes = (
{
closed = 1;
nodes = (
(169,574,l),
(336,574,l),
(412,574,o),
(450,541,o),
(450,474,c),
(450,449,o),
(443,367,o),
(350,367,c),
(169,367,l)
);
},
{
closed = 1;
nodes = (
(468,0,l),
(579,0,l),
(399,279,l),
(486,299,o),
(543,374,o),
(543,474,c),
(543,592,o),
(462,668,o),
(336,668,c),
(76,668,l),
(76,0,l),
(169,0,l),
(169,274,l),
(291,274,l)
);
}
);
width = 609;
},
{
layerId = "FB38E465-C1A6-43CF-BE4B-F46E2783E3B9";
shapes = (
{
closed = 1;
nodes = (
(196,548,l),
(350,548,l),
(416,548,o),
(450,521,o),
(450,468,c),
(450,426,o),
(427,381,o),
(363,381,c),
(196,381,l)
);
},
{
closed = 1;
nodes = (
(465,0,l),
(608,0,l),
(433,271,l),
(515,298,o),
(570,373,o),
(570,468,c),
(570,587,o),
(481,668,o),
(350,668,c),
(76,668,l),
(76,0,l),
(196,0,l),
(196,261,l),
(297,261,l)
);
}
);
width = 638;
},
{
layerId = "13D2CB4F-7007-4A2A-A7B7-7C5789877F78";
shapes = (
{
closed = 1;
nodes = (
(143,601,l),
(324,601,l),
(408,601,o),
(451,561,o),
(451,481,c),
(451,401,o),
(408,354,o),
(337,354,c),
(143,354,l)
);
},
{
closed = 1;
nodes = (
(471,0,l),
(550,0,l),
(364,289,l),
(457,301,o),
(517,375,o),
(517,481,c),
(517,598,o),
(445,668,o),
(324,668,c),
(76,668,l),
(76,0,l),
(143,0,l),
(143,287,l),
(285,287,l)
);
}
);
width = 580;
}
);
unicode = 82;
},
{
glyphname = S;
lastChange = "2022-05-03 22:15:34 +0000";
layers = (
{
layerId = m01;
shapes = (
{
closed = 1;
nodes = (
(507,289,o),
(388,338,o),
(291,378,c),
(193,418,o),
(133,446,o),
(133,501,c),
(133,545,o),
(177,588,o),
(274,588,c),
(319,588,o),
(390,577,o),
(413,514,c),
(502,544,l),
(472,630,o),
(389,682,o),
(274,682,c),
(136,682,o),
(40,608,o),
(40,501,c),
(40,380,o),
(160,331,o),
(256,291,c),
(354,251,o),
(414,222,o),
(414,167,c),
(414,124,o),
(370,81,o),
(274,81,c),
(228,81,o),
(157,91,o),
(134,154,c),
(45,125,l),
(75,39,o),
(158,-13,o),
(274,-13,c),
(411,-13,o),
(507,61,o),
(507,167,c)
);
}
);
width = 547;
},
{
layerId = "FB38E465-C1A6-43CF-BE4B-F46E2783E3B9";
shapes = (
{
closed = 1;
nodes = (
(534,306,o),
(409,353,o),
(308,391,cs),
(216,425,o),
(160,449,o),
(160,495,cs),
(159,547,o),
(233,561,o),
(287,561,cs),
(371,561,o),
(402,536,o),
(414,510,c),
(527,548,l),
(504,613,o),
(443,682,o),
(287,682,cs),
(139,682,o),
(40,607,o),
(40,495,cs),
(40,363,o),
(165,316,o),
(266,278,cs),
(358,244,o),
(414,219,o),
(414,174,cs),
(414,122,o),
(341,108,o),
(287,107,cs),
(203,107,o),
(172,132,o),
(160,158,c),
(47,121,l),
(70,56,o),
(131,-13,o),
(287,-13,cs),
(435,-13,o),
(534,62,o),
(534,174,cs)
);
}
);
width = 574;
},
{
layerId = "13D2CB4F-7007-4A2A-A7B7-7C5789877F78";
shapes = (
{
closed = 1;
nodes = (
(481,280,o),
(371,325,o),
(273,365,c),
(173,407,o),
(107,438,o),
(107,501,c),
(107,579,o),
(187,615,o),
(261,615,c),
(350,615,o),
(396,570,o),
(413,519,c),
(477,540,l),
(445,637,o),
(350,682,o),
(261,682,c),
(133,682,o),
(40,606,o),
(40,501,c),
(40,389,o),
(151,343,o),
(248,303,c),
(349,262,o),
(414,230,o),
(414,167,c),
(414,89,o),
(335,54,o),
(261,54,c),
(172,54,o),
(126,99,o),
(109,150,c),
(45,129,l),
(76,32,o),
(171,-13,o),
(261,-13,c),
(388,-13,o),
(481,63,o),
(481,167,c)
);
}
);
width = 521;
}
);
unicode = 83;
},
{
glyphname = T;
lastChange = "2022-05-03 22:15:56 +0000";
layers = (
{
layerId = m01;
shapes = (
{
closed = 1;
nodes = (
(10,668,l),
(10,575,l),
(230,575,l),
(228,0,l),
(322,0,l),
(323,575,l),
(544,575,l),
(544,668,l)
);
}
);
width = 554;
},
{
layerId = "FB38E465-C1A6-43CF-BE4B-F46E2783E3B9";
shapes = (
{
closed = 1;
nodes = (
(10,668,l),
(10,548,l),
(217,548,l),
(215,0,l),
(335,0,l),
(337,548,l),
(544,548,l),
(544,668,l)
);
}
);
width = 554;
},
{
layerId = "13D2CB4F-7007-4A2A-A7B7-7C5789877F78";
shapes = (
{
closed = 1;
nodes = (
(10,668,l),
(10,601,l),
(244,601,l),
(242,0,l),
(309,0,l),
(310,601,l),
(544,601,l),
(544,668,l)
);
}
);
width = 554;
}
);
unicode = 84;
},
{
glyphname = U;
lastChange = "2022-05-03 22:16:14 +0000";
layers = (
{
layerId = m01;
shapes = (
{
closed = 1;
nodes = (
(214,-13,o),
(76,71,o),
(76,254,c),
(76,668,l),
(169,668,l),
(169,254,l),
(169,126,o),
(263,81,o),
(343,81,c),
(423,81,o),
(517,126,o),
(517,254,c),
(517,668,l),
(610,668,l),
(610,254,l),
(610,71,o),
(472,-13,o),
(343,-13,c)
);
}
);
width = 686;
},
{
layerId = "FB38E465-C1A6-43CF-BE4B-F46E2783E3B9";
shapes = (
{
closed = 1;
nodes = (
(208,-10,o),
(79,71,o),
(76,254,cs),
(76,668,l),
(196,668,l),
(196,254,ls),
(196,118,o),
(319,107,o),
(356,107,cs),
(394,107,o),
(516,118,o),
(516,254,cs),
(516,668,l),
(637,668,l),
(637,254,ls),
(634,71,o),
(504,-10,o),
(356,-13,cs)
);
}
);
width = 713;
},
{
layerId = "13D2CB4F-7007-4A2A-A7B7-7C5789877F78";
shapes = (
{
closed = 1;
nodes = (
(208,-13,o),
(76,71,o),
(76,254,c),
(76,668,l),
(143,668,l),
(143,254,l),
(143,96,o),
(261,54,o),
(330,54,c),
(400,54,o),
(517,96,o),
(517,254,c),
(517,668,l),
(584,668,l),
(584,254,l),
(584,71,o),
(452,-13,o),
(330,-13,c)
);
}
);
width = 660;
}
);
unicode = 85;
},
{
glyphname = V;
lastChange = "2022-05-03 22:16:32 +0000";
layers = (
{
layerId = m01;
shapes = (
{
closed = 1;
nodes = (
(477,668,l),
(293,142,l),
(109,668,l),
(10,668,l),
(244,0,l),
(343,0,l),
(577,668,l)
);
}
);
width = 587;
},
{
layerId = "FB38E465-C1A6-43CF-BE4B-F46E2783E3B9";
shapes = (
{
closed = 1;
nodes = (
(478,668,l),
(307,182,l),
(137,668,l),
(10,668,l),
(244,0,l),
(371,0,l),
(605,668,l)
);
}
);
width = 615;
},
{
layerId = "13D2CB4F-7007-4A2A-A7B7-7C5789877F78";
shapes = (
{
closed = 1;
nodes = (
(478,668,l),
(279,101,l),
(81,668,l),
(10,668,l),
(244,0,l),
(315,0,l),
(549,668,l)
);
}
);
width = 559;
}
);
unicode = 86;
},
{
glyphname = W;
lastChange = "2022-05-03 22:16:43 +0000";
layers = (
{
layerId = m01;
shapes = (
{
closed = 1;
nodes = (
(731,668,l),
(594,179,l),
(471,655,l),
(367,655,l),
(244,179,l),
(107,668,l),
(10,668,l),
(197,0,l),
(294,0,l),
(419,482,l),
(544,0,l),
(641,0,l),
(828,668,l)
);
}
);
width = 838;
},
{
layerId = "FB38E465-C1A6-43CF-BE4B-F46E2783E3B9";
shapes = (
{
closed = 1;
nodes = (
(732,668,l),
(609,231,l),
(499,655,l),
(368,655,l),
(257,231,l),
(135,668,l),
(10,668,l),
(197,0,l),
(322,0,l),
(433,429,l),
(545,0,l),
(669,0,l),
(856,668,l)
);
}
);
width = 866;
},
{
layerId = "13D2CB4F-7007-4A2A-A7B7-7C5789877F78";
shapes = (
{
closed = 1;
nodes = (
(731,668,l),
(580,128,l),
(443,655,l),
(367,655,l),
(230,128,l),
(79,668,l),
(10,668,l),
(197,0,l),
(266,0,l),
(405,535,l),
(544,0,l),
(614,0,l),
(801,668,l)
);
}
);
width = 811;
}
);
unicode = 87;
},
{
glyphname = X;
lastChange = "2022-05-03 22:16:59 +0000";
layers = (
{
layerId = m01;
shapes = (
{
closed = 1;
nodes = (
(431,668,l),
(283,432,l),
(134,668,l),
(23,668,l),
(227,345,l),
(10,0,l),
(121,0,l),
(283,257,l),
(444,0,l),
(555,0,l),
(338,345,l),
(542,668,l)
);
}
);
width = 565;
},
{
layerId = "FB38E465-C1A6-43CF-BE4B-F46E2783E3B9";
shapes = (
{
closed = 1;
nodes = (
(430,668,l),
(298,457,l),
(165,668,l),
(23,668,l),
(227,345,l),
(10,0,l),
(152,0,l),
(298,232,l),
(444,0,l),
(586,0,l),
(369,345,l),
(573,668,l)
);
}
);
width = 596;
},
{
layerId = "13D2CB4F-7007-4A2A-A7B7-7C5789877F78";
shapes = (
{
closed = 1;
nodes = (
(431,668,l),
(267,407,l),
(102,668,l),
(23,668,l),
(227,345,l),
(10,0,l),
(89,0,l),
(267,282,l),
(444,0,l),
(523,0,l),
(306,345,l),
(510,668,l)
);
}
);
width = 533;
}
);
unicode = 88;
},
{
glyphname = Y;
lastChange = "2022-05-03 22:17:23 +0000";
layers = (
{
layerId = m01;
shapes = (
{
closed = 1;
nodes = (
(491,668,l),
(305,347,l),
(118,668,l),
(10,668,l),
(258,241,l),
(258,0,l),
(351,0,l),
(351,241,l),
(599,668,l)
);
}
);
width = 609;
},
{
layerId = "FB38E465-C1A6-43CF-BE4B-F46E2783E3B9";
shapes = (
{
closed = 1;
nodes = (
(488,668,l),
(317,374,l),
(146,668,l),
(10,668,l),
(257,238,l),
(257,0,l),
(377,0,l),
(377,238,l),
(624,668,l)
);
}
);
width = 634;
},
{
layerId = "13D2CB4F-7007-4A2A-A7B7-7C5789877F78";
shapes = (
{
closed = 1;
nodes = (
(491,668,l),
(289,320,l),
(87,668,l),
(10,668,l),
(256,245,l),
(256,0,l),
(322,0,l),
(322,245,l),
(568,668,l)
);
}
);
width = 578;
}
);
unicode = 89;
},
{
glyphname = Z;
lastChange = "2022-05-03 22:17:49 +0000";
layers = (
{
layerId = m01;
shapes = (
{
closed = 1;
nodes = (
(44,668,l),
(44,574,l),
(419,574,l),
(44,102,l),
(44,0,l),
(532,0,l),
(532,94,l),
(157,94,l),
(532,566,l),
(532,668,l)
);
}
);
width = 576;
},
{
layerId = "FB38E465-C1A6-43CF-BE4B-F46E2783E3B9";
shapes = (
{
closed = 1;
nodes = (
(44,668,l),
(44,548,l),
(380,548,l),
(44,123,l),
(44,0,l),
(531,0,l),
(531,120,l),
(195,120,l),
(531,545,l),
(531,668,l)
);
}
);
width = 575;
},
{
layerId = "13D2CB4F-7007-4A2A-A7B7-7C5789877F78";
shapes = (
{
closed = 1;
nodes = (
(44,668,l),
(44,601,l),
(457,601,l),
(44,80,l),
(44,0,l),
(531,0,l),
(531,67,l),
(118,67,l),
(531,588,l),
(531,668,l)
);
}
);
width = 575;
}
);
unicode = 90;
},
{
glyphname = a;
lastChange = "2022-05-03 22:26:08 +0000";
layers = (
{
layerId = m01;
shapes = (
{
closed = 1;
nodes = (
(142,81,o),
(132,110,o),
(132,127,c),
(132,155,o),
(139,189,o),
(201,202,c),
(272,216,o),
(326,214,o),
(358,209,c),
(358,148,l),
(341,127,o),
(294,81,o),
(212,81,c)
);
},
{
closed = 1;
nodes = (
(150,508,o),
(81,462,o),
(52,385,c),
(141,356,l),
(157,394,o),
(192,415,o),
(245,415,c),
(319,415,o),
(358,376,o),
(359,303,c),
(317,308,o),
(257,308,o),
(182,293,c),
(91,275,o),
(38,214,o),
(38,127,c),
(38,42,o),
(106,-13,o),
(212,-13,c),
(273,-13,o),
(321,5,o),
(358,27,c),
(358,0,l),
(451,0,l),
(452,301,l),
(452,427,o),
(371,508,o),
(245,508,c)
);
}
);
width = 503;
},
{
layerId = "FB38E465-C1A6-43CF-BE4B-F46E2783E3B9";
shapes = (
{
closed = 1;
nodes = (
(206,107,o),
(158,112,o),
(158,133,c),
(158,145,o),
(158,176,o),
(217,188,c),
(278,200,o),
(327,200,o),
(358,197,c),
(358,156,l),
(339,138,o),
(296,107,o),
(225,107,c)
);
},
{
closed = 1;
nodes = (
(159,508,o),
(87,464,o),
(56,388,c),
(171,350,l),
(185,375,o),
(214,387,o),
(258,387,c),
(318,387,o),
(350,366,o),
(357,318,c),
(316,321,o),
(261,319,o),
(193,306,c),
(97,287,o),
(38,221,o),
(38,133,c),
(38,46,o),
(113,-13,o),
(225,-13,c),
(278,-13,o),
(322,-2,o),
(358,14,c),
(358,0,l),
(478,0,l),
(479,294,l),
(479,426,o),
(394,508,o),
(258,508,c)
);
}
);
width = 530;
},
{
layerId = "13D2CB4F-7007-4A2A-A7B7-7C5789877F78";
shapes = (
{
closed = 1;
nodes = (
(152,54,o),
(105,79,o),
(105,127,c),
(105,175,o),
(131,204,o),
(185,215,c),
(267,231,o),
(328,226,o),
(359,221,c),
(358,142,l),
(344,120,o),
(293,54,o),
(199,54,c)
);
},
{
closed = 1;
nodes = (
(139,508,o),
(73,461,o),
(49,382,c),
(112,361,l),
(127,414,o),
(168,441,o),
(232,441,c),
(341,441,o),
(359,370,o),
(359,288,c),
(319,294,o),
(255,297,o),
(172,280,c),
(87,263,o),
(38,208,o),
(38,127,c),
(38,47,o),
(107,-13,o),
(199,-13,c),
(269,-13,o),
(322,14,o),
(358,44,c),
(358,0,l),
(425,0,l),
(426,308,l),
(426,431,o),
(352,508,o),
(232,508,c)
);
}
);
width = 477;
}
);
unicode = 97;
},
{
glyphname = b;
lastChange = "2022-05-03 22:32:19 +0000";
layers = (
{
layerId = m01;
shapes = (
{
closed = 1;
nodes = (
(265,81,o),
(164,81,o),
(164,248,c),
(164,289,o),
(164,415,o),
(298,415,c),
(331,415,o),
(431,415,o),
(431,248,c),
(431,206,o),
(431,81,o),
(298,81,c)
);
},
{
closed = 1;
nodes = (
(245,508,o),
(200,495,o),
(164,469,c),
(164,668,l),
(70,668,l),
(70,0,l),
(164,0,l),
(164,26,l),
(200,1,o),
(245,-13,o),
(298,-13,c),
(440,-13,o),
(525,84,o),
(525,248,c),
(525,411,o),
(440,508,o),
(298,508,c)
);
}
);
width = 563;
},
{
layerId = "FB38E465-C1A6-43CF-BE4B-F46E2783E3B9";
shapes = (
{
closed = 1;
nodes = (
(255,107,o),
(191,123,o),
(191,247,c),
(191,371,o),
(255,387,o),
(311,387,c),
(367,387,o),
(431,371,o),
(431,247,c),
(431,123,o),
(367,107,o),
(311,107,c)
);
},
{
closed = 1;
nodes = (
(265,508,o),
(225,498,o),
(191,481,c),
(191,668,l),
(70,668,l),
(70,0,l),
(191,0,l),
(191,13,l),
(225,-4,o),
(265,-13,o),
(311,-13,c),
(462,-13,o),
(551,84,o),
(551,247,c),
(551,410,o),
(462,508,o),
(311,508,c)
);
}
);
width = 589;
},
{
layerId = "13D2CB4F-7007-4A2A-A7B7-7C5789877F78";
shapes = (
{
closed = 1;
nodes = (
(162,54,o),
(137,159,o),
(137,248,c),
(137,408,o),
(216,441,o),
(284,441,c),
(405,441,o),
(430,336,o),
(430,248,c),
(430,87,o),
(351,54,o),
(284,54,c)
);
},
{
closed = 1;
nodes = (
(222,508,o),
(172,489,o),
(137,452,c),
(137,668,l),
(70,668,l),
(70,0,l),
(137,0,l),
(137,43,l),
(172,7,o),
(222,-13,o),
(284,-13,c),
(419,-13,o),
(497,82,o),
(497,248,c),
(497,413,o),
(419,508,o),
(284,508,c)
);
}
);
width = 535;
}
);
unicode = 98;
},
{
glyphname = c;
lastChange = "2022-05-03 22:32:35 +0000";
layers = (
{
layerId = m01;
shapes = (
{
closed = 1;
nodes = (
(122,508,o),
(38,411,o),
(38,248,c),
(38,84,o),
(122,-13,o),
(265,-13,c),
(360,-13,o),
(430,31,o),
(465,109,c),
(377,139,l),
(359,107,o),
(326,81,o),
(265,81,c),
(232,81,o),
(131,81,o),
(131,248,c),
(131,289,o),
(131,415,o),
(265,415,c),
(289,415,o),
(348,414,o),
(379,350,c),
(468,380,l),
(433,462,o),
(363,508,o),
(265,508,c)
);
}
);
width = 501;
},
{
layerId = "FB38E465-C1A6-43CF-BE4B-F46E2783E3B9";
shapes = (
{
closed = 1;
nodes = (
(127,508,o),
(38,410,o),
(38,247,c),
(38,84,o),
(127,-13,o),
(278,-13,c),
(378,-13,o),
(451,29,o),
(489,106,c),
(372,144,l),
(348,113,o),
(312,107,o),
(278,107,c),
(222,107,o),
(158,123,o),
(158,247,c),
(158,371,o),
(222,387,o),
(278,387,c),
(314,387,o),
(352,381,o),
(376,344,c),
(492,383,l),
(454,463,o),
(380,508,o),
(278,508,c)
);
}
);
width = 525;
},
{
layerId = "13D2CB4F-7007-4A2A-A7B7-7C5789877F78";
shapes = (
{
closed = 1;
nodes = (
(116,508,o),
(38,413,o),
(38,248,c),
(38,82,o),
(116,-13,o),
(252,-13,c),
(345,-13,o),
(410,31,o),
(443,113,c),
(379,134,l),
(351,70,o),
(298,54,o),
(252,54,c),
(130,54,o),
(105,159,o),
(105,248,c),
(105,408,o),
(185,441,o),
(252,441,c),
(324,441,o),
(362,404,o),
(381,355,c),
(445,377,l),
(413,461,o),
(347,508,o),
(252,508,c)
);
}
);
width = 478;
}
);
unicode = 99;
},
{
glyphname = d;
lastChange = "2022-05-03 22:34:41 +0000";
layers = (
{
layerId = m01;
shapes = (
{
closed = 1;
nodes = (
(232,81,o),
(131,81,o),
(131,248,c),
(131,289,o),
(131,415,o),
(265,415,c),
(298,415,o),
(398,415,o),
(398,248,c),
(398,206,o),
(398,81,o),
(265,81,c)
);
},
{
closed = 1;
nodes = (
(492,668,l),
(398,668,l),
(398,469,l),
(363,495,o),
(318,508,o),
(265,508,c),
(122,508,o),
(38,411,o),
(38,248,c),
(38,84,o),
(122,-13,o),
(265,-13,c),
(333,-13,o),
(388,10,o),
(427,51,c),
(461,8,o),
(520,0,o),
(579,0,c),
(579,94,l),
(519,94,o),
(492,92,o),
(492,154,c)
);
}
);
width = 589;
},
{
layerId = "FB38E465-C1A6-43CF-BE4B-F46E2783E3B9";
shapes = (
{
closed = 1;
nodes = (
(222,107,o),
(158,123,o),
(158,247,c),
(158,371,o),
(222,387,o),
(278,387,c),
(334,387,o),
(398,371,o),
(398,247,c),
(398,123,o),
(334,107,o),
(278,107,c)
);
},
{
closed = 1;
nodes = (
(518,668,l),
(398,668,l),
(398,481,l),
(364,498,o),
(324,508,o),
(278,508,c),
(127,508,o),
(38,410,o),
(38,247,c),
(38,84,o),
(127,-13,o),
(278,-13,c),
(347,-13,o),
(403,7,o),
(444,45,c),
(482,11,o),
(524,1,o),
(592,0,c),
(592,120,l),
(518,120,o),
(518,138,o),
(518,160,c)
);
}
);
width = 602;
},
{
layerId = "13D2CB4F-7007-4A2A-A7B7-7C5789877F78";
shapes = (
{
closed = 1;
nodes = (
(130,54,o),
(105,159,o),
(105,248,c),
(105,408,o),
(185,441,o),
(252,441,c),
(373,441,o),
(399,336,o),
(399,248,c),
(399,87,o),
(319,54,o),
(252,54,c)
);
},
{
closed = 1;
nodes = (
(465,668,l),
(399,668,l),
(399,452,l),
(363,489,o),
(313,508,o),
(252,508,c),
(116,508,o),
(38,413,o),
(38,248,c),
(38,82,o),
(116,-13,o),
(252,-13,c),
(324,-13,o),
(379,14,o),
(416,63,c),
(437,24,o),
(480,0,o),
(566,0,c),
(566,67,l),
(489,67,o),
(465,76,o),
(465,154,c)
);
}
);
width = 576;
}
);
unicode = 100;
},
{
glyphname = e;
lastChange = "2022-05-03 22:35:17 +0000";
layers = (
{
layerId = m01;
shapes = (
{
closed = 1;
nodes = (
(294,415,o),
(372,414,o),
(394,308,c),
(137,308,l),
(146,357,o),
(175,415,o),
(265,415,c)
);
},
{
closed = 1;
nodes = (
(492,214,l),
(492,225,o),
(493,236,o),
(493,248,c),
(493,411,o),
(408,508,o),
(265,508,c),
(123,508,o),
(38,411,o),
(38,248,c),
(38,84,o),
(123,-13,o),
(265,-13,c),
(386,-13,o),
(443,28,o),
(470,88,c),
(380,118,l),
(362,90,o),
(329,81,o),
(265,81,c),
(235,81,o),
(146,81,o),
(133,214,c)
);
}
);
width = 544;
},
{
layerId = "FB38E465-C1A6-43CF-BE4B-F46E2783E3B9";
shapes = (
{
closed = 1;
nodes = (
(321,387,o),
(368,378,o),
(388,321,c),
(169,321,l),
(190,378,o),
(237,387,o),
(279,387,c)
);
},
{
closed = 1;
nodes = (
(518,200,l),
(519,216,o),
(519,231,o),
(519,247,c),
(519,410,o),
(429,508,o),
(279,508,c),
(128,508,o),
(38,410,o),
(38,247,c),
(38,84,o),
(128,-13,o),
(279,-13,c),
(402,-13,o),
(463,26,o),
(492,85,c),
(373,124,l),
(355,113,o),
(324,107,o),
(279,107,c),
(231,107,o),
(177,119,o),
(162,200,c)
);
}
);
width = 570;
},
{
layerId = "13D2CB4F-7007-4A2A-A7B7-7C5789877F78";
shapes = (
{
closed = 1;
nodes = (
(352,441,o),
(387,369,o),
(396,294,c),
(107,294,l),
(121,414,o),
(191,441,o),
(251,441,c)
);
},
{
closed = 1;
nodes = (
(465,227,l),
(465,234,o),
(465,241,o),
(465,248,c),
(465,413,o),
(387,508,o),
(251,508,c),
(116,508,o),
(38,413,o),
(38,248,c),
(38,82,o),
(116,-13,o),
(251,-13,c),
(367,-13,o),
(420,29,o),
(445,92,c),
(382,113,l),
(363,72,o),
(326,54,o),
(251,54,c),
(139,54,o),
(109,144,o),
(105,227,c)
);
}
);
width = 516;
}
);
unicode = 101;
},
{
glyphname = f;
lastChange = "2022-05-05 15:00:16 +0000";
layers = (
{
layerId = m01;
shapes = (
{
closed = 1;
nodes = (
(249,715,l),
(160,715,o),
(68,697,o),
(68,561,c),
(68,494,l),
(15,494,l),
(15,401,l),
(68,401,l),
(68,0,l),
(162,0,l),
(162,401,l),
(249,401,l),
(249,494,l),
(162,494,l),
(162,561,l),
(162,617,o),
(180,621,o),
(249,621,c)
);
}
);
width = 274;
},
{
layerId = "FB38E465-C1A6-43CF-BE4B-F46E2783E3B9";
shapes = (
{
closed = 1;
nodes = (
(249,728,l),
(191,728,o),
(55,728,o),
(55,561,c),
(55,494,l),
(15,494,l),
(15,374,l),
(55,374,l),
(55,0,l),
(176,0,l),
(176,374,l),
(249,374,l),
(249,494,l),
(176,494,l),
(176,561,l),
(176,605,o),
(183,607,o),
(249,607,c)
);
}
);
width = 274;
},
{
layerId = "13D2CB4F-7007-4A2A-A7B7-7C5789877F78";
shapes = (
{
closed = 1;
nodes = (
(249,701,l),
(162,701,o),
(82,684,o),
(82,561,c),
(82,494,l),
(15,494,l),
(15,428,l),
(82,428,l),
(82,0,l),
(149,0,l),
(149,428,l),
(249,428,l),
(249,494,l),
(149,494,l),
(149,561,l),
(149,619,o),
(161,635,o),
(249,635,c)
);
}
);
width = 274;
}
);
unicode = 102;
},
{
glyphname = g;
lastChange = "2022-05-03 22:36:42 +0000";
layers = (
{
layerId = m01;
shapes = (
{
closed = 1;
nodes = (
(232,82,o),
(132,82,o),
(132,249,c),
(132,290,o),
(132,416,o),
(265,416,c),
(298,416,o),
(399,416,o),
(399,249,c),
(399,208,o),
(399,82,o),
(265,82,c)
);
},
{
closed = 1;
nodes = (
(399,496,l),
(399,470,l),
(363,496,o),
(318,509,o),
(265,509,c),
(123,509,o),
(38,412,o),
(38,249,c),
(38,86,o),
(123,-12,o),
(265,-12,c),
(317,-12,o),
(361,1,o),
(397,26,c),
(391,-27,o),
(366,-98,o),
(265,-98,c),
(244,-98,o),
(194,-98,o),
(162,-53,c),
(71,-83,l),
(108,-153,o),
(175,-192,o),
(265,-192,c),
(407,-192,o),
(492,-95,o),
(492,69,c),
(492,496,l)
);
}
);
width = 562;
},
{
layerId = "FB38E465-C1A6-43CF-BE4B-F46E2783E3B9";
shapes = (
{
closed = 1;
nodes = (
(222,108,o),
(158,124,o),
(158,248,c),
(158,372,o),
(222,388,o),
(278,388,c),
(334,388,o),
(399,372,o),
(399,248,c),
(399,124,o),
(334,108,o),
(278,108,c)
);
},
{
closed = 1;
nodes = (
(399,495,l),
(399,482,l),
(365,499,o),
(325,509,o),
(278,509,c),
(128,509,o),
(38,411,o),
(38,248,c),
(38,85,o),
(128,-12,o),
(278,-12,c),
(322,-12,o),
(361,-4,o),
(394,12,c),
(378,-75,o),
(322,-86,o),
(278,-86,c),
(249,-86,o),
(213,-81,o),
(188,-49,c),
(71,-88,l),
(110,-164,o),
(182,-206,o),
(278,-206,c),
(429,-206,o),
(519,-104,o),
(519,68,c),
(519,495,l)
);
}
);
width = 589;
},
{
layerId = "13D2CB4F-7007-4A2A-A7B7-7C5789877F78";
shapes = (
{
closed = 1;
nodes = (
(131,54,o),
(105,159,o),
(105,248,c),
(105,408,o),
(185,441,o),
(252,441,c),
(374,441,o),
(399,336,o),
(399,248,c),
(399,87,o),
(319,54,o),
(252,54,c)
);
},
{
closed = 1;
nodes = (
(399,495,l),
(399,452,l),
(363,489,o),
(314,508,o),
(252,508,c),
(116,508,o),
(38,413,o),
(38,248,c),
(38,82,o),
(116,-13,o),
(252,-13,c),
(313,-13,o),
(362,6,o),
(398,42,c),
(392,-61,o),
(343,-113,o),
(252,-113,c),
(199,-113,o),
(160,-95,o),
(135,-59,c),
(70,-80,l),
(105,-145,o),
(167,-180,o),
(252,-180,c),
(388,-180,o),
(466,-90,o),
(466,67,c),
(466,495,l)
);
}
);
width = 536;
}
);
unicode = 103;
},
{
glyphname = h;
lastChange = "2022-05-03 22:37:07 +0000";
layers = (
{
layerId = m01;
shapes = (
{
closed = 1;
nodes = (
(227,508,o),
(191,495,o),
(163,477,c),
(163,668,l),
(70,668,l),
(70,0,l),
(163,0,l),
(163,247,l),
(163,330,o),
(177,414,o),
(277,414,c),
(333,414,o),
(390,394,o),
(390,247,c),
(390,0,l),
(484,0,l),
(484,247,l),
(484,466,o),
(364,508,o),
(277,508,c)
);
}
);
width = 552;
},
{
layerId = "FB38E465-C1A6-43CF-BE4B-F46E2783E3B9";
shapes = (
{
closed = 1;
nodes = (
(261,508,o),
(225,503,o),
(190,488,c),
(190,668,l),
(70,668,l),
(70,0,l),
(190,0,l),
(190,247,l),
(190,376,o),
(242,387,o),
(290,387,c),
(339,387,o),
(390,376,o),
(390,247,c),
(390,0,l),
(511,0,l),
(511,247,l),
(511,474,o),
(373,508,o),
(290,508,c)
);
}
);
width = 579;
},
{
layerId = "13D2CB4F-7007-4A2A-A7B7-7C5789877F78";
shapes = (
{
closed = 1;
nodes = (
(221,508,o),
(174,497,o),
(137,461,c),
(137,668,l),
(70,668,l),
(70,0,l),
(137,0,l),
(137,247,l),
(137,330,o),
(150,441,o),
(264,441,c),
(318,441,o),
(391,421,o),
(391,247,c),
(391,0,l),
(458,0,l),
(458,247,l),
(458,462,o),
(352,508,o),
(264,508,c)
);
}
);
width = 526;
}
);
unicode = 104;
},
{
glyphname = i;
lastChange = "2022-05-05 17:47:30 +0000";
layers = (
{
layerId = m01;
shapes = (
{
closed = 1;
nodes = (
(185,595,o),
(212,621,o),
(212,655,c),
(212,688,o),
(185,715,o),
(152,715,c),
(118,715,o),
(92,688,o),
(92,655,c),
(92,621,o),
(118,595,o),
(152,595,c)
);
},
{
closed = 1;
nodes = (
(205,494,l),
(205,0,l),
(112,0,l),
(112,401,l),
(45,401,l),
(45,494,l)
);
}
);
width = 271;
},
{
layerId = "FB38E465-C1A6-43CF-BE4B-F46E2783E3B9";
shapes = (
{
closed = 1;
nodes = (
(193,581,o),
(226,614,o),
(226,655,c),
(226,695,o),
(193,728,o),
(152,728,c),
(112,728,o),
(79,695,o),
(79,655,c),
(79,614,o),
(112,581,o),
(152,581,c)
);
},
{
closed = 1;
nodes = (
(219,494,l),
(219,0,l),
(99,0,l),
(99,374,l),
(45,374,l),
(45,494,l)
);
}
);
width = 285;
},
{
layerId = "13D2CB4F-7007-4A2A-A7B7-7C5789877F78";
shapes = (
{
closed = 1;
nodes = (
(185,595,o),
(212,621,o),
(212,655,c),
(212,688,o),
(185,715,o),
(152,715,c),
(118,715,o),
(92,688,o),
(92,655,c),
(92,621,o),
(118,595,o),
(152,595,c)
);
},
{
closed = 1;
nodes = (
(192,494,l),
(192,0,l),
(125,0,l),
(125,428,l),
(45,428,l),
(45,494,l)
);
}
);
width = 271;
}
);
unicode = 105;
},
{
glyphname = j;
lastChange = "2022-05-03 22:38:23 +0000";
layers = (
{
layerId = m01;
shapes = (
{
closed = 1;
nodes = (
(86,716,o),
(59,690,o),
(59,656,c),
(59,623,o),
(86,596,o),
(119,596,c),
(152,596,o),
(179,623,o),
(179,656,c),
(179,690,o),
(152,716,o),
(119,716,c)
);
},
{
closed = 1;
nodes = (
(-50,-78,l),
(67,-78,o),
(77,-41,o),
(77,2,c),
(77,496,l),
(170,496,l),
(170,2,l),
(167,-137,o),
(67,-172,o),
(-50,-172,c)
);
}
);
width = 239;
},
{
layerId = "FB38E465-C1A6-43CF-BE4B-F46E2783E3B9";
shapes = (
{
closed = 1;
nodes = (
(83,729,o),
(50,696,o),
(50,656,c),
(50,615,o),
(83,582,o),
(124,582,c),
(164,582,o),
(197,615,o),
(197,656,c),
(197,696,o),
(164,729,o),
(124,729,c)
);
},
{
closed = 1;
nodes = (
(-50,-66,l),
(64,-66,o),
(64,-30,o),
(64,1,c),
(64,495,l),
(184,495,l),
(184,1,l),
(184,-84,o),
(143,-186,o),
(-50,-186,c)
);
}
);
width = 257;
},
{
layerId = "13D2CB4F-7007-4A2A-A7B7-7C5789877F78";
shapes = (
{
closed = 1;
nodes = (
(90,714,o),
(63,687,o),
(63,654,c),
(63,621,o),
(90,594,o),
(123,594,c),
(156,594,o),
(183,621,o),
(183,654,c),
(183,687,o),
(156,714,o),
(123,714,c)
);
},
{
closed = 1;
nodes = (
(-50,-94,l),
(66,-94,o),
(90,-57,o),
(90,-1,c),
(90,494,l),
(157,494,l),
(157,-1,l),
(157,-107,o),
(87,-161,o),
(-50,-161,c)
);
}
);
width = 243;
}
);
unicode = 106;
},
{
glyphname = k;
lastChange = "2022-05-03 22:38:41 +0000";
layers = (
{
layerId = m01;
shapes = (
{
closed = 1;
nodes = (
(70,668,l),
(70,0,l),
(164,0,l),
(164,149,l),
(224,216,l),
(380,0,l),
(495,0,l),
(288,287,l),
(474,494,l),
(348,494,l),
(164,289,l),
(164,668,l)
);
}
);
width = 505;
},
{
layerId = "FB38E465-C1A6-43CF-BE4B-F46E2783E3B9";
shapes = (
{
closed = 1;
nodes = (
(70,668,l),
(70,0,l),
(191,0,l),
(191,144,l),
(236,195,l),
(377,0,l),
(525,0,l),
(319,286,l),
(505,494,l),
(344,494,l),
(191,324,l),
(191,668,l)
);
}
);
width = 530;
},
{
layerId = "13D2CB4F-7007-4A2A-A7B7-7C5789877F78";
shapes = (
{
closed = 1;
nodes = (
(70,668,l),
(70,0,l),
(136,0,l),
(136,154,l),
(211,238,l),
(383,0,l),
(465,0,l),
(257,288,l),
(442,494,l),
(352,494,l),
(136,254,l),
(136,668,l)
);
}
);
width = 475;
}
);
unicode = 107;
},
{
glyphname = l;
lastChange = "2022-05-05 13:13:15 +0000";
layers = (
{
layerId = m01;
shapes = (
{
closed = 1;
nodes = (
(250,0,l),
(161,0,o),
(70,18,o),
(70,154,c),
(70,668,l),
(163,668,l),
(163,154,l),
(163,87,o),
(211,94,o),
(250,94,c)
);
}
);
width = 265;
},
{
layerId = "FB38E465-C1A6-43CF-BE4B-F46E2783E3B9";
shapes = (
{
closed = 1;
nodes = (
(263,0,l),
(158,0,o),
(72,37,o),
(70,160,cs),
(70,668,l),
(190,668,l),
(190,160,ls),
(190,138,o),
(190,120,o),
(263,120,c)
);
}
);
width = 278;
},
{
layerId = "13D2CB4F-7007-4A2A-A7B7-7C5789877F78";
shapes = (
{
closed = 1;
nodes = (
(237,0,l),
(98,0,o),
(70,61,o),
(70,154,c),
(70,668,l),
(137,668,l),
(137,154,l),
(137,70,o),
(171,67,o),
(237,67,c)
);
}
);
width = 252;
}
);
unicode = 108;
},
{
glyphname = m;
lastChange = "2022-05-03 22:39:34 +0000";
layers = (
{
layerId = m01;
shapes = (
{
closed = 1;
nodes = (
(510,508,o),
(463,467,o),
(438,432,c),
(413,467,o),
(365,508,o),
(278,508,c),
(228,508,o),
(191,495,o),
(164,477,c),
(164,494,l),
(70,494,l),
(70,0,l),
(164,0,l),
(164,247,l),
(164,330,o),
(177,414,o),
(278,414,c),
(334,414,o),
(391,394,o),
(391,247,c),
(391,0,l),
(485,0,l),
(485,247,l),
(485,330,o),
(498,414,o),
(598,414,c),
(654,414,o),
(712,394,o),
(712,247,c),
(712,0,l),
(805,0,l),
(805,247,l),
(805,460,o),
(691,508,o),
(598,508,c)
);
}
);
width = 873;
},
{
layerId = "FB38E465-C1A6-43CF-BE4B-F46E2783E3B9";
shapes = (
{
closed = 1;
nodes = (
(564,508,o),
(499,496,o),
(451,444,c),
(404,496,o),
(338,508,o),
(291,508,c),
(262,508,o),
(225,503,o),
(191,488,c),
(191,494,l),
(70,494,l),
(70,0,l),
(191,0,l),
(191,247,l),
(191,376,o),
(242,387,o),
(291,387,c),
(339,387,o),
(391,376,o),
(391,247,c),
(391,0,l),
(511,0,l),
(511,247,l),
(511,376,o),
(563,387,o),
(612,387,c),
(660,387,o),
(712,376,o),
(712,247,c),
(712,0,l),
(832,0,l),
(832,247,l),
(832,474,o),
(694,508,o),
(612,508,c)
);
}
);
width = 900;
},
{
layerId = "13D2CB4F-7007-4A2A-A7B7-7C5789877F78";
shapes = (
{
closed = 1;
nodes = (
(527,508,o),
(462,488,o),
(424,416,c),
(386,488,o),
(321,508,o),
(263,508,c),
(220,508,o),
(174,497,o),
(137,461,c),
(137,494,l),
(70,494,l),
(70,0,l),
(137,0,l),
(137,247,l),
(137,330,o),
(150,441,o),
(263,441,c),
(318,441,o),
(390,421,o),
(390,247,c),
(390,0,l),
(457,0,l),
(457,247,l),
(457,330,o),
(470,441,o),
(584,441,c),
(639,441,o),
(711,421,o),
(711,247,c),
(711,0,l),
(778,0,l),
(778,247,l),
(778,462,o),
(673,508,o),
(584,508,c)
);
}
);
width = 846;
}
);
unicode = 109;
},
{
glyphname = n;
lastChange = "2022-05-03 22:39:49 +0000";
layers = (
{
layerId = m01;
shapes = (
{
closed = 1;
nodes = (
(227,508,o),
(190,495,o),
(163,477,c),
(163,494,l),
(70,494,l),
(70,0,l),
(163,0,l),
(163,247,l),
(163,330,o),
(177,414,o),
(277,414,c),
(333,414,o),
(390,394,o),
(390,247,c),
(390,0,l),
(484,0,l),
(484,247,l),
(484,461,o),
(370,508,o),
(277,508,c)
);
}
);
width = 552;
},
{
layerId = "FB38E465-C1A6-43CF-BE4B-F46E2783E3B9";
shapes = (
{
closed = 1;
nodes = (
(261,508,o),
(225,503,o),
(190,488,c),
(190,494,l),
(70,494,l),
(70,0,l),
(190,0,l),
(190,247,l),
(190,376,o),
(242,387,o),
(290,387,c),
(339,387,o),
(390,376,o),
(390,247,c),
(390,0,l),
(511,0,l),
(511,247,l),
(511,474,o),
(373,508,o),
(290,508,c)
);
}
);
width = 579;
},
{
layerId = "13D2CB4F-7007-4A2A-A7B7-7C5789877F78";
shapes = (
{
closed = 1;
nodes = (
(221,508,o),
(174,497,o),
(137,461,c),
(137,494,l),
(70,494,l),
(70,0,l),
(137,0,l),
(137,247,l),
(137,330,o),
(150,441,o),
(264,441,c),
(318,441,o),
(391,421,o),
(391,247,c),
(391,0,l),
(458,0,l),
(458,247,l),
(458,462,o),
(352,508,o),
(264,508,c)
);
}
);
width = 526;
}
);
unicode = 110;
},
{
glyphname = o;
lastChange = "2022-05-03 22:40:25 +0000";
layers = (
{
layerId = m01;
shapes = (
{
closed = 1;
nodes = (
(131,415,o),
(131,289,o),
(131,248,c),
(131,81,o),
(232,81,o),
(265,81,c),
(399,81,o),
(399,206,o),
(399,248,c),
(399,415,o),
(298,415,o),
(265,415,c)
);
},
{
closed = 1;
nodes = (
(123,-13,o),
(38,84,o),
(38,248,c),
(38,411,o),
(123,508,o),
(265,508,c),
(407,508,o),
(492,411,o),
(492,248,c),
(492,84,o),
(407,-13,o),
(265,-13,c)
);
}
);
width = 530;
},
{
layerId = "FB38E465-C1A6-43CF-BE4B-F46E2783E3B9";
shapes = (
{
closed = 1;
nodes = (
(222,387,o),
(158,371,o),
(158,247,c),
(158,123,o),
(222,107,o),
(278,107,c),
(334,107,o),
(399,123,o),
(399,247,c),
(399,371,o),
(334,387,o),
(278,387,c)
);
},
{
closed = 1;
nodes = (
(128,-13,o),
(38,84,o),
(38,247,c),
(38,410,o),
(128,508,o),
(278,508,c),
(429,508,o),
(519,410,o),
(519,247,c),
(519,84,o),
(429,-13,o),
(278,-13,c)
);
}
);
width = 557;
},
{
layerId = "13D2CB4F-7007-4A2A-A7B7-7C5789877F78";
shapes = (
{
closed = 1;
nodes = (
(185,441,o),
(105,408,o),
(105,248,c),
(105,159,o),
(130,54,o),
(252,54,c),
(319,54,o),
(399,87,o),
(399,248,c),
(399,336,o),
(373,441,o),
(252,441,c)
);
},
{
closed = 1;
nodes = (
(116,-13,o),
(38,82,o),
(38,248,c),
(38,413,o),
(116,508,o),
(252,508,c),
(388,508,o),
(466,413,o),
(466,248,c),
(466,82,o),
(388,-13,o),
(252,-13,c)
);
}
);
width = 504;
}
);
unicode = 111;
},
{
glyphname = p;
lastChange = "2022-05-03 22:40:59 +0000";
layers = (
{
layerId = m01;
shapes = (
{
closed = 1;
nodes = (
(264,82,o),
(163,82,o),
(163,249,c),
(163,290,o),
(163,416,o),
(297,416,c),
(330,416,o),
(430,416,o),
(430,249,c),
(430,208,o),
(430,82,o),
(297,82,c)
);
},
{
closed = 1;
nodes = (
(244,509,o),
(199,496,o),
(163,470,c),
(163,496,l),
(70,496,l),
(70,-172,l),
(163,-172,l),
(163,27,l),
(199,2,o),
(244,-12,o),
(297,-12,c),
(439,-12,o),
(524,86,o),
(524,249,c),
(524,412,o),
(439,509,o),
(297,509,c)
);
}
);
width = 562;
},
{
layerId = "FB38E465-C1A6-43CF-BE4B-F46E2783E3B9";
shapes = (
{
closed = 1;
nodes = (
(254,107,o),
(190,123,o),
(190,247,c),
(190,371,o),
(254,387,o),
(310,387,c),
(366,387,o),
(430,371,o),
(430,247,c),
(430,123,o),
(366,107,o),
(310,107,c)
);
},
{
closed = 1;
nodes = (
(264,508,o),
(224,498,o),
(190,481,c),
(190,494,l),
(70,494,l),
(70,-174,l),
(190,-174,l),
(190,13,l),
(224,-4,o),
(264,-13,o),
(310,-13,c),
(461,-13,o),
(551,84,o),
(551,247,c),
(551,410,o),
(461,508,o),
(310,508,c)
);
}
);
width = 589;
},
{
layerId = "13D2CB4F-7007-4A2A-A7B7-7C5789877F78";
shapes = (
{
closed = 1;
nodes = (
(162,54,o),
(137,159,o),
(137,248,c),
(137,408,o),
(217,442,o),
(284,442,c),
(405,442,o),
(431,336,o),
(431,248,c),
(431,88,o),
(351,54,o),
(284,54,c)
);
},
{
closed = 1;
nodes = (
(222,508,o),
(173,489,o),
(137,452,c),
(137,495,l),
(70,495,l),
(70,-173,l),
(137,-173,l),
(137,43,l),
(173,7,o),
(222,-13,o),
(284,-13,c),
(420,-13,o),
(497,82,o),
(497,248,c),
(497,413,o),
(420,508,o),
(284,508,c)
);
}
);
width = 535;
}
);
unicode = 112;
},
{
glyphname = q;
lastChange = "2022-05-03 22:41:33 +0000";
layers = (
{
layerId = m01;
shapes = (
{
closed = 1;
nodes = (
(232,82,o),
(132,82,o),
(132,249,c),
(132,290,o),
(132,416,o),
(266,416,c),
(299,416,o),
(399,416,o),
(399,249,c),
(399,208,o),
(399,82,o),
(266,82,c)
);
},
{
closed = 1;
nodes = (
(497,-56,o),
(493,-34,o),
(493,2,c),
(493,496,l),
(399,496,l),
(399,470,l),
(363,496,o),
(318,509,o),
(266,509,c),
(123,509,o),
(38,412,o),
(38,249,c),
(38,86,o),
(123,-12,o),
(266,-12,c),
(318,-12,o),
(363,2,o),
(399,27,c),
(399,2,l),
(399,-122,o),
(451,-172,o),
(579,-172,c),
(579,-78,l),
(541,-78,o),
(517,-74,o),
(507,-65,c)
);
}
);
width = 565;
},
{
layerId = "FB38E465-C1A6-43CF-BE4B-F46E2783E3B9";
shapes = (
{
closed = 1;
nodes = (
(223,107,o),
(159,123,o),
(159,247,c),
(159,371,o),
(223,387,o),
(279,387,c),
(335,387,o),
(399,371,o),
(399,247,c),
(399,123,o),
(335,107,o),
(279,107,c)
);
},
{
closed = 1;
nodes = (
(521,-33,o),
(519,-11,o),
(519,7,c),
(519,494,l),
(399,494,l),
(399,481,l),
(365,498,o),
(325,508,o),
(279,508,c),
(128,508,o),
(38,410,o),
(38,247,c),
(38,84,o),
(128,-13,o),
(279,-13,c),
(325,-13,o),
(365,-4,o),
(399,13,c),
(399,7,l),
(399,-113,o),
(464,-174,o),
(593,-174,c),
(593,-54,l),
(551,-54,o),
(536,-46,o),
(531,-41,c)
);
}
);
width = 579;
},
{
layerId = "13D2CB4F-7007-4A2A-A7B7-7C5789877F78";
shapes = (
{
closed = 1;
nodes = (
(130,54,o),
(105,159,o),
(105,247,c),
(105,408,o),
(184,441,o),
(251,441,c),
(373,441,o),
(398,336,o),
(398,247,c),
(398,87,o),
(319,54,o),
(251,54,c)
);
},
{
closed = 1;
nodes = (
(470,-69,o),
(465,-44,o),
(465,0,c),
(465,495,l),
(398,495,l),
(398,452,l),
(363,488,o),
(313,508,o),
(251,508,c),
(116,508,o),
(38,413,o),
(38,247,c),
(38,82,o),
(116,-13,o),
(251,-13,c),
(313,-13,o),
(363,6,o),
(398,43,c),
(398,0,l),
(398,-123,o),
(437,-160,o),
(565,-160,c),
(565,-93,l),
(518,-93,o),
(492,-89,o),
(481,-79,c)
);
}
);
width = 551;
}
);
unicode = 113;
},
{
glyphname = r;
lastChange = "2022-05-03 22:41:46 +0000";
layers = (
{
layerId = m01;
shapes = (
{
closed = 1;
nodes = (
(227,508,o),
(191,495,o),
(163,477,c),
(163,494,l),
(70,494,l),
(70,0,l),
(163,0,l),
(163,247,l),
(163,330,o),
(177,414,o),
(277,414,c),
(296,414,o),
(314,412,o),
(331,404,c),
(354,495,l),
(333,503,o),
(307,508,o),
(277,508,c)
);
}
);
width = 359;
},
{
layerId = "FB38E465-C1A6-43CF-BE4B-F46E2783E3B9";
shapes = (
{
closed = 1;
nodes = (
(261,508,o),
(225,503,o),
(190,488,c),
(190,494,l),
(70,494,l),
(70,0,l),
(190,0,l),
(190,247,l),
(190,376,o),
(242,387,o),
(290,387,c),
(307,387,o),
(325,386,o),
(340,379,c),
(368,496,l),
(340,505,o),
(313,508,o),
(290,508,c)
);
}
);
width = 373;
},
{
layerId = "13D2CB4F-7007-4A2A-A7B7-7C5789877F78";
shapes = (
{
closed = 1;
nodes = (
(221,508,o),
(174,497,o),
(137,461,c),
(137,494,l),
(70,494,l),
(70,0,l),
(137,0,l),
(137,247,l),
(137,421,o),
(209,441,o),
(264,441,c),
(283,441,o),
(304,438,o),
(324,428,c),
(341,494,l),
(316,504,o),
(289,508,o),
(264,508,c)
);
}
);
width = 346;
}
);
unicode = 114;
},
{
glyphname = s;
lastChange = "2022-05-05 13:25:41 +0000";
layers = (
{
layerId = m01;
shapes = (
{
closed = 1;
nodes = (
(153,310,o),
(135,320,o),
(135,355,cs),
(135,411,o),
(208,415,o),
(223,415,cs),
(254,415,o),
(306,400,o),
(335,366,c),
(413,419,l),
(358,488,o),
(270,508,o),
(223,508,cs),
(116,508,o),
(42,445,o),
(42,355,cs),
(42,236,o),
(149,215,o),
(220,202,cs),
(305,186,o),
(322,175,o),
(322,141,cs),
(322,131,o),
(318,81,o),
(222,81,cs),
(191,81,o),
(139,95,o),
(109,129,c),
(31,76,l),
(86,8,o),
(174,-13,o),
(222,-13,cs),
(338,-13,o),
(416,49,o),
(416,141,cs),
(416,260,o),
(309,280,o),
(238,294,cs)
);
}
);
width = 446;
},
{
layerId = "FB38E465-C1A6-43CF-BE4B-F46E2783E3B9";
shapes = (
{
closed = 1;
nodes = (
(165,323,o),
(158,332,o),
(158,355,cs),
(158,388,o),
(229,388,o),
(232,388,cs),
(263,389,o),
(304,379,o),
(331,357,c),
(432,426,l),
(376,489,o),
(289,509,o),
(232,509,cs),
(116,508,o),
(38,447,o),
(38,355,cs),
(38,225,o),
(156,202,o),
(227,189,cs),
(311,173,o),
(318,164,o),
(318,141,cs),
(318,111,o),
(253,108,o),
(231,108,cs),
(200,108,o),
(159,118,o),
(132,139,c),
(31,70,l),
(83,9,o),
(174,-12,o),
(231,-12,cs),
(359,-12,o),
(439,47,o),
(439,141,cs),
(439,271,o),
(320,294,o),
(250,307,cs)
);
}
);
width = 469;
},
{
layerId = "13D2CB4F-7007-4A2A-A7B7-7C5789877F78";
shapes = (
{
closed = 1;
nodes = (
(146,302,o),
(113,313,o),
(113,361,c),
(113,429,o),
(176,448,o),
(213,448,c),
(247,448,o),
(304,426,o),
(339,382,c),
(395,419,l),
(354,476,o),
(275,515,o),
(213,515,c),
(130,515,o),
(46,462,o),
(46,361,c),
(46,253,o),
(143,235,o),
(214,221,c),
(294,206,o),
(327,195,o),
(327,147,c),
(327,79,o),
(259,54,o),
(213,54,c),
(175,54,o),
(117,83,o),
(86,126,c),
(31,89,l),
(70,31,o),
(149,-13,o),
(213,-13,c),
(301,-13,o),
(394,43,o),
(394,147,c),
(394,255,o),
(297,274,o),
(226,287,c)
);
}
);
width = 425;
}
);
unicode = 115;
},
{
glyphname = t;
lastChange = "2022-05-05 15:00:21 +0000";
layers = (
{
layerId = m01;
shapes = (
{
closed = 1;
nodes = (
(254,401,l),
(254,494,l),
(167,494,l),
(167,668,l),
(73,668,l),
(73,494,l),
(20,494,l),
(20,401,l),
(73,401,l),
(73,154,l),
(73,18,o),
(164,0,o),
(254,0,c),
(254,94,l),
(218,94,o),
(167,83,o),
(167,154,c),
(167,401,l)
);
}
);
width = 294;
},
{
layerId = "FB38E465-C1A6-43CF-BE4B-F46E2783E3B9";
shapes = (
{
closed = 1;
nodes = (
(254,374,l),
(254,494,l),
(181,494,l),
(181,668,l),
(60,668,l),
(60,494,l),
(20,494,l),
(20,374,l),
(60,374,l),
(60,160,l),
(63,37,o),
(148,0,o),
(254,0,c),
(254,120,l),
(181,120,o),
(181,138,o),
(181,160,c),
(181,374,l)
);
}
);
width = 294;
},
{
layerId = "13D2CB4F-7007-4A2A-A7B7-7C5789877F78";
shapes = (
{
closed = 1;
nodes = (
(254,427,l),
(254,494,l),
(153,494,l),
(153,655,l),
(87,655,l),
(87,494,l),
(20,494,l),
(20,427,l),
(87,427,l),
(87,140,l),
(87,33,o),
(141,0,o),
(254,0,c),
(254,67,l),
(175,67,o),
(153,76,o),
(153,140,c),
(153,427,l)
);
}
);
width = 294;
}
);
unicode = 116;
},
{
glyphname = u;
lastChange = "2022-05-03 22:42:49 +0000";
layers = (
{
layerId = m01;
shapes = (
{
closed = 1;
nodes = (
(388,495,l),
(388,248,l),
(388,165,o),
(375,81,o),
(275,81,c),
(218,81,o),
(161,100,o),
(161,248,c),
(161,495,l),
(68,495,l),
(68,248,l),
(68,29,o),
(186,-13,o),
(275,-13,c),
(324,-13,o),
(361,0,o),
(388,18,c),
(388,0,l),
(482,0,l),
(482,495,l)
);
}
);
width = 552;
},
{
layerId = "FB38E465-C1A6-43CF-BE4B-F46E2783E3B9";
shapes = (
{
closed = 1;
nodes = (
(388,494,l),
(388,247,l),
(388,118,o),
(336,107,o),
(288,107,c),
(239,107,o),
(188,118,o),
(188,247,c),
(188,494,l),
(68,494,l),
(68,247,l),
(68,20,o),
(206,-13,o),
(288,-13,c),
(317,-13,o),
(354,-9,o),
(388,7,c),
(388,0,l),
(508,0,l),
(508,494,l)
);
}
);
width = 578;
},
{
layerId = "13D2CB4F-7007-4A2A-A7B7-7C5789877F78";
shapes = (
{
closed = 1;
nodes = (
(388,495,l),
(388,248,l),
(388,164,o),
(375,54,o),
(262,54,c),
(207,54,o),
(135,74,o),
(135,248,c),
(135,495,l),
(68,495,l),
(68,248,l),
(68,32,o),
(173,-13,o),
(262,-13,c),
(305,-13,o),
(352,-2,o),
(388,34,c),
(388,0,l),
(455,0,l),
(455,495,l)
);
}
);
width = 525;
}
);
unicode = 117;
},
{
glyphname = v;
lastChange = "2022-05-03 22:43:57 +0000";
layers = (
{
layerId = m01;
shapes = (
{
closed = 1;
nodes = (
(346.999,494.32,l),
(222.88,141.063,l),
(98.762,494.32,l),
(-0.361,494.32,l),
(173.319,0,l),
(272.442,0,l),
(446.122,494.32,l)
);
}
);
width = 446;
},
{
layerId = "FB38E465-C1A6-43CF-BE4B-F46E2783E3B9";
shapes = (
{
closed = 1;
nodes = (
(347,494,l),
(237,181,l),
(127,494,l),
(0,494,l),
(174,0,l),
(301,0,l),
(475,494,l)
);
}
);
width = 475;
},
{
layerId = "13D2CB4F-7007-4A2A-A7B7-7C5789877F78";
shapes = (
{
closed = 1;
nodes = (
(347.131,494.32,l),
(208.853,100.762,l),
(70.576,494.32,l),
(-0.229,494.32,l),
(173.451,0,l),
(244.256,0,l),
(417.936,494.32,l)
);
}
);
width = 418;
}
);
unicode = 118;
},
{
glyphname = w;
lastChange = "2022-05-03 22:44:07 +0000";
layers = (
{
layerId = m01;
shapes = (
{
closed = 1;
nodes = (
(561.124,494.32,l),
(473.818,171.293,l),
(377.782,494.32,l),
(280.218,494.32,l),
(184.183,171.293,l),
(96.877,494.32,l),
(0.004,494.32,l),
(133.603,0,l),
(230.822,0,l),
(329,330.237,l),
(427.178,0,l),
(524.397,0,l),
(657.996,494.32,l)
);
}
);
width = 658;
},
{
layerId = "FB38E465-C1A6-43CF-BE4B-F46E2783E3B9";
shapes = (
{
closed = 1;
nodes = (
(561,494,l),
(487,220,l),
(405,494,l),
(280,494,l),
(198,220,l),
(124,494,l),
(0,494,l),
(133,0,l),
(258,0,l),
(342,283,l),
(427,0,l),
(552,0,l),
(685,494,l)
);
}
);
width = 685;
},
{
layerId = "13D2CB4F-7007-4A2A-A7B7-7C5789877F78";
shapes = (
{
closed = 1;
nodes = (
(560.933,494.32,l),
(460.404,122.354,l),
(349.818,494.32,l),
(280.128,494.32,l),
(169.543,122.354,l),
(69.014,494.32,l),
(-0.184,494.32,l),
(133.416,0,l),
(202.858,0,l),
(314.973,377.114,l),
(427.089,0,l),
(496.531,0,l),
(630.13,494.32,l)
);
}
);
width = 630;
}
);
unicode = 119;
},
{
glyphname = x;
lastChange = "2022-05-03 22:44:13 +0000";
layers = (
{
layerId = m01;
shapes = (
{
closed = 1;
nodes = (
(334.006,494.32,l),
(223.44,330.683,l),
(112.874,494.32,l),
(0.006,494.32,l),
(167.006,247.16,l),
(0.006,0,l),
(112.874,0,l),
(223.44,163.638,l),
(334.006,0,l),
(446.875,0,l),
(279.875,247.16,l),
(446.875,494.32,l)
);
}
);
width = 447;
},
{
layerId = "FB38E465-C1A6-43CF-BE4B-F46E2783E3B9";
shapes = (
{
closed = 1;
nodes = (
(334,494,l),
(240,354,l),
(145,494,l),
(0,494,l),
(167,247,l),
(0,0,l),
(145,0,l),
(240,140,l),
(334,0,l),
(479,0,l),
(312,247,l),
(479,494,l)
);
}
);
width = 479;
},
{
layerId = "13D2CB4F-7007-4A2A-A7B7-7C5789877F78";
shapes = (
{
closed = 1;
nodes = (
(334.101,494.32,l),
(207.413,306.82,l),
(80.725,494.32,l),
(0.105,494.32,l),
(167.102,247.16,l),
(0.105,0,l),
(80.725,0,l),
(207.413,187.501,l),
(334.101,0,l),
(414.721,0,l),
(247.724,247.16,l),
(414.721,494.32,l)
);
}
);
width = 415;
}
);
unicode = 120;
},
{
glyphname = y;
lastChange = "2022-05-05 13:28:36 +0000";
layers = (
{
layerId = m01;
shapes = (
{
closed = 1;
nodes = (
(341,496,l),
(223,145,l),
(100,496,l),
(0,496,l),
(174,3,l),
(161,-24,o),
(125,-78,o),
(43,-78,c),
(43,-172,l),
(181,-172,o),
(250,-68,o),
(268,-13,c),
(440,496,l)
);
}
);
width = 440;
},
{
layerId = "FB38E465-C1A6-43CF-BE4B-F46E2783E3B9";
shapes = (
{
closed = 1;
nodes = (
(341,495,l),
(236,185,l),
(127,495,l),
(0,495,l),
(173,3,l),
(159,-21,o),
(126,-66,o),
(57,-66,c),
(57,-186,l),
(202,-186,o),
(275,-76,o),
(294,-18,c),
(468,495,l)
);
}
);
width = 468;
},
{
layerId = "13D2CB4F-7007-4A2A-A7B7-7C5789877F78";
shapes = (
{
closed = 1;
nodes = (
(340,494,l),
(208,102,l),
(70,494,l),
(0,494,l),
(173,0,l),
(162,-26,o),
(122,-94,o),
(28,-94,c),
(28,-161,l),
(159,-161,o),
(224,-63,o),
(240,-11,c),
(411,494,l)
);
}
);
width = 411;
}
);
unicode = 121;
},
{
glyphname = z;
lastChange = "2022-05-03 22:44:51 +0000";
layers = (
{
layerId = m01;
shapes = (
{
closed = 1;
nodes = (
(40,494,l),
(40,401,l),
(293,401,l),
(40,94,l),
(40,0,l),
(414,0,l),
(414,94,l),
(161,94,l),
(414,401,l),
(414,494,l)
);
}
);
width = 444;
},
{
layerId = "FB38E465-C1A6-43CF-BE4B-F46E2783E3B9";
shapes = (
{
closed = 1;
nodes = (
(40,494,l),
(40,374,l),
(258,374,l),
(40,125,l),
(40,0,l),
(414,0,l),
(414,120,l),
(195,120,l),
(414,370,l),
(414,494,l)
);
}
);
width = 444;
},
{
layerId = "13D2CB4F-7007-4A2A-A7B7-7C5789877F78";
shapes = (
{
closed = 1;
nodes = (
(40,494,l),
(40,428,l),
(332,428,l),
(40,73,l),
(40,0,l),
(414,0,l),
(414,67,l),
(122,67,l),
(414,422,l),
(414,494,l)
);
}
);
width = 444;
}
);
unicode = 122;
},
{
glyphname = zero;
lastChange = "2022-05-05 19:33:30 +0000";
layers = (
{
layerId = m01;
shapes = (
{
closed = 1;
nodes = (
(229,562,l),
(253,578,o),
(284,588,o),
(324,588,c),
(473,588,o),
(504,450,o),
(504,334,c),
(504,286,o),
(499,235,o),
(482,190,c)
);
},
{
closed = 1;
nodes = (
(175,81,o),
(144,219,o),
(144,334,c),
(144,385,o),
(149,439,o),
(168,484,c),
(424,110,l),
(399,91,o),
(366,81,o),
(324,81,c)
);
},
{
closed = 1;
nodes = (
(479,650,o),
(409,682,o),
(324,682,c),
(239,682,o),
(169,650,o),
(121,589,c),
(74,529,o),
(50,443,o),
(50,334,c),
(50,226,o),
(74,140,o),
(121,80,c),
(169,19,o),
(239,-13,o),
(324,-13,c),
(409,-13,o),
(479,19,o),
(527,80,c),
(577,145,o),
(598,238,o),
(598,334,c),
(598,443,o),
(574,529,o),
(527,589,c)
);
}
);
width = 648;
},
{
layerId = "13D2CB4F-7007-4A2A-A7B7-7C5789877F78";
shapes = (
{
closed = 1;
nodes = (
(192,572,l),
(220,598,o),
(259,615,o),
(311,615,c),
(479,615,o),
(504,439,o),
(504,334,c),
(504,284,o),
(498,216,o),
(473,160,c)
);
},
{
closed = 1;
nodes = (
(142,54,o),
(117,230,o),
(117,334,c),
(117,387,o),
(123,457,o),
(151,514,c),
(433,101,l),
(404,72,o),
(365,54,o),
(311,54,c)
);
},
{
closed = 1;
nodes = (
(458,650,o),
(391,682,o),
(311,682,c),
(230,682,o),
(163,650,o),
(118,589,c),
(73,529,o),
(50,443,o),
(50,334,c),
(50,226,o),
(73,140,o),
(118,80,c),
(163,19,o),
(230,-13,o),
(311,-13,c),
(391,-13,o),
(458,19,o),
(503,80,c),
(548,140,o),
(571,226,o),
(571,334,c),
(571,443,o),
(548,529,o),
(503,589,c)
);
}
);
width = 621;
},
{
layerId = "FB38E465-C1A6-43CF-BE4B-F46E2783E3B9";
shapes = (
{
closed = 1;
nodes = (
(267,549,l),
(287,557,o),
(310,561,o),
(337,561,c),
(379,561,o),
(504,561,o),
(504,334,c),
(504,310,o),
(504,265,o),
(491,221,c)
);
},
{
closed = 1;
nodes = (
(296,107,o),
(170,107,o),
(170,334,c),
(170,360,o),
(170,409,o),
(186,455,c),
(413,122,l),
(392,113,o),
(368,107,o),
(337,107,c)
);
},
{
closed = 1;
nodes = (
(500,650,o),
(426,682,o),
(337,682,c),
(248,682,o),
(175,650,o),
(125,589,c),
(75,529,o),
(50,443,o),
(50,334,c),
(50,226,o),
(75,140,o),
(125,80,c),
(175,19,o),
(248,-13,o),
(337,-13,c),
(426,-13,o),
(500,19,o),
(550,80,c),
(600,140,o),
(625,226,o),
(625,334,c),
(625,443,o),
(600,529,o),
(550,589,c)
);
}
);
width = 675;
}
);
unicode = 48;
},
{
glyphname = one;
lastChange = "2022-05-05 19:34:06 +0000";
layers = (
{
layerId = m01;
shapes = (
{
closed = 1;
nodes = (
(216,668,l),
(43,553,l),
(95,475,l),
(223,561,l),
(223,0,l),
(317,0,l),
(317,668,l)
);
}
);
width = 415;
},
{
layerId = "13D2CB4F-7007-4A2A-A7B7-7C5789877F78";
shapes = (
{
closed = 1;
nodes = (
(222,668,l),
(43,549,l),
(80,493,l),
(229,592,l),
(229,0,l),
(296,0,l),
(296,668,l)
);
}
);
width = 394;
},
{
layerId = "FB38E465-C1A6-43CF-BE4B-F46E2783E3B9";
shapes = (
{
closed = 1;
nodes = (
(199,668,l),
(43,564,l),
(110,464,l),
(217,536,l),
(217,0,l),
(337,0,l),
(337,668,l)
);
}
);
width = 435;
}
);
unicode = 49;
},
{
glyphname = two;
lastChange = "2022-05-05 21:08:02 +0000";
layers = (
{
layerId = m01;
shapes = (
{
closed = 1;
nodes = (
(187,94,l),
(226,128,o),
(470,302,o),
(470,468,c),
(470,593,o),
(382,681,o),
(257,681,c),
(131,681,o),
(43,593,o),
(43,468,c),
(136,468,l),
(136,542,o),
(182,588,o),
(257,588,c),
(331,588,o),
(377,542,o),
(377,468,c),
(377,366,o),
(182,198,o),
(43,103,c),
(43,0,l),
(470,0,l),
(470,94,l)
);
}
);
width = 513;
},
{
layerId = "13D2CB4F-7007-4A2A-A7B7-7C5789877F78";
shapes = (
{
closed = 1;
nodes = (
(144,67,l),
(261,159,o),
(458,336,o),
(458,474,c),
(458,594,o),
(373,681,o),
(257,681,c),
(139,681,o),
(57,593,o),
(57,468,c),
(124,468,l),
(124,557,o),
(176,615,o),
(257,615,c),
(337,615,o),
(391,558,o),
(391,474,c),
(391,341,o),
(103,119,o),
(43,75,c),
(43,0,l),
(471,0,l),
(471,67,l)
);
}
);
width = 514;
},
{
layerId = "FB38E465-C1A6-43CF-BE4B-F46E2783E3B9";
shapes = (
{
closed = 1;
nodes = (
(249,120,l),
(296,160,o),
(497,305,o),
(497,461,c),
(497,593,o),
(406,681,o),
(270,681,c),
(136,681,o),
(43,593,o),
(43,468,c),
(163,468,l),
(163,552,o),
(238,561,o),
(270,561,c),
(310,561,o),
(377,548,o),
(377,461,c),
(377,344,o),
(95,155,o),
(43,123,c),
(43,0,l),
(484,0,l),
(484,120,l)
);
}
);
width = 540;
}
);
unicode = 50;
},
{
glyphname = three;
lastChange = "2022-05-05 19:36:53 +0000";
layers = (
{
layerId = m01;
shapes = (
{
closed = 1;
nodes = (
(171,491,l),
(171,554,o),
(205,588,o),
(268,588,c),
(330,588,o),
(365,554,o),
(365,491,c),
(365,429,o),
(330,394,o),
(268,394,c),
(263,394,o),
(259,395,o),
(254,395,c),
(254,301,l),
(259,301,o),
(264,301,o),
(268,301,c),
(309,301,o),
(405,290,o),
(405,191,c),
(405,91,o),
(309,81,o),
(268,81,c),
(230,81,o),
(146,90,o),
(133,169,c),
(42,146,l),
(61,48,o),
(145,-13,o),
(268,-13,c),
(408,-13,o),
(498,67,o),
(498,191,c),
(498,265,o),
(466,323,o),
(410,358,c),
(441,391,o),
(458,437,o),
(458,491,c),
(458,605,o),
(382,682,o),
(268,682,c),
(161,682,o),
(88,615,o),
(78,514,c)
);
}
);
width = 558;
},
{
layerId = "13D2CB4F-7007-4A2A-A7B7-7C5789877F78";
shapes = (
{
closed = 1;
nodes = (
(146,498,l),
(146,570,o),
(188,615,o),
(256,615,c),
(324,615,o),
(367,570,o),
(367,498,c),
(367,426,o),
(324,381,o),
(256,381,c),
(252,381,o),
(247,381,o),
(243,382,c),
(243,314,l),
(247,314,o),
(252,314,o),
(256,314,c),
(349,314,o),
(407,264,o),
(407,184,c),
(407,104,o),
(349,54,o),
(256,54,c),
(171,54,o),
(116,96,o),
(107,165,c),
(42,149,l),
(58,51,o),
(140,-13,o),
(256,-13,c),
(386,-13,o),
(473,66,o),
(473,184,c),
(473,262,o),
(436,323,o),
(373,355,c),
(411,388,o),
(433,438,o),
(433,498,c),
(433,606,o),
(361,682,o),
(256,682,c),
(156,682,o),
(85,612,o),
(80,510,c)
);
}
);
width = 533;
},
{
layerId = "FB38E465-C1A6-43CF-BE4B-F46E2783E3B9";
shapes = (
{
closed = 1;
nodes = (
(196,487,l),
(196,522,o),
(207,561,o),
(279,561,c),
(353,561,o),
(363,520,o),
(363,485,c),
(363,449,o),
(353,408,o),
(279,408,c),
(274,408,o),
(270,408,o),
(266,408,c),
(266,287,l),
(270,287,o),
(275,288,o),
(279,288,c),
(361,288,o),
(403,257,o),
(403,197,c),
(403,138,o),
(361,107,o),
(279,107,c),
(210,107,o),
(169,129,o),
(159,172,c),
(42,143,l),
(65,47,o),
(153,-13,o),
(279,-13,c),
(427,-13,o),
(523,70,o),
(523,197,c),
(523,267,o),
(494,324,o),
(444,360,c),
(469,393,o),
(483,435,o),
(483,485,c),
(483,604,o),
(403,682,o),
(279,682,c),
(167,682,o),
(91,618,o),
(77,517,c)
);
}
);
width = 583;
}
);
unicode = 51;
},
{
glyphname = four;
lastChange = "2022-05-05 19:37:12 +0000";
layers = (
{
layerId = m01;
shapes = (
{
closed = 1;
nodes = (
(369,668,l),
(38,242,l),
(38,154,l),
(366,154,l),
(366,0,l),
(459,0,l),
(459,154,l),
(573,154,l),
(573,247,l),
(459,247,l),
(459,668,l)
);
},
{
closed = 1;
nodes = (
(366,511,l),
(366,247,l),
(161,247,l)
);
}
);
width = 611;
},
{
layerId = "13D2CB4F-7007-4A2A-A7B7-7C5789877F78";
shapes = (
{
closed = 1;
nodes = (
(385,668,l),
(38,220,l),
(38,167,l),
(379,167,l),
(379,0,l),
(445,0,l),
(445,167,l),
(572,167,l),
(572,234,l),
(445,234,l),
(445,668,l)
);
},
{
closed = 1;
nodes = (
(379,550,l),
(379,234,l),
(133,234,l)
);
}
);
width = 610;
},
{
layerId = "FB38E465-C1A6-43CF-BE4B-F46E2783E3B9";
shapes = (
{
closed = 1;
nodes = (
(351,668,l),
(38,264,l),
(38,140,l),
(352,140,l),
(352,0,l),
(472,0,l),
(472,140,l),
(572,140,l),
(572,261,l),
(472,261,l),
(472,668,l)
);
},
{
closed = 1;
nodes = (
(352,472,l),
(352,261,l),
(187,261,l)
);
}
);
width = 610;
}
);
unicode = 52;
},
{
glyphname = five;
lastChange = "2022-05-05 20:05:35 +0000";
layers = (
{
layerId = m01;
shapes = (
{
closed = 1;
nodes = (
(154,302,l),
(177,340,o),
(218,361,o),
(274,361,c),
(362,361,o),
(414,309,o),
(414,221,c),
(414,133,o),
(362,81,o),
(274,81,c),
(207,81,o),
(161,111,o),
(143,164,c),
(54,134,l),
(85,44,o),
(166,-13,o),
(274,-13,c),
(414,-13,o),
(508,81,o),
(508,221,c),
(508,361,o),
(414,455,o),
(274,455,c),
(229,455,o),
(188,445,o),
(154,426,c),
(154,575,l),
(488,575,l),
(488,668,l),
(60,668,l),
(60,332,l)
);
}
);
width = 570;
},
{
layerId = "13D2CB4F-7007-4A2A-A7B7-7C5789877F78";
shapes = (
{
closed = 1;
nodes = (
(133,305,l),
(158,349,o),
(204,374,o),
(264,374,cs),
(357,374,o),
(417,312,o),
(417,214,cs),
(417,117,o),
(357,54,o),
(264,54,cs),
(190,54,o),
(136,94,o),
(118,159,c),
(54,138,l),
(82,46,o),
(160,-13,o),
(264,-13,cs),
(393,-13,o),
(484,80,o),
(484,214,cs),
(484,348,o),
(393,441,o),
(264,441,cs),
(212,441,o),
(166,426,o),
(130,400,c),
(130,602,l),
(477,602,l),
(477,668,l),
(63,668,l),
(63,328,l)
);
}
);
width = 546;
},
{
layerId = "FB38E465-C1A6-43CF-BE4B-F46E2783E3B9";
shapes = (
{
closed = 1;
nodes = (
(179,303,l),
(203,338,o),
(247,348,o),
(286,348,cs),
(343,348,o),
(412,327,o),
(412,227,cs),
(412,128,o),
(343,107,o),
(286,107,cs),
(241,107,o),
(190,120,o),
(169,171,c),
(54,135,l),
(88,44,o),
(172,-13,o),
(286,-13,cs),
(433,-13,o),
(533,84,o),
(533,227,cs),
(533,371,o),
(433,468,o),
(286,468,cs),
(246,468,o),
(210,461,o),
(179,448,c),
(179,548,l),
(499,548,l),
(499,668,l),
(58,668,l),
(58,333,l)
);
}
);
width = 595;
}
);
unicode = 53;
},
{
glyphname = six;
lastChange = "2022-05-05 20:06:34 +0000";
layers = (
{
layerId = m01;
shapes = (
{
closed = 1;
nodes = (
(382,361,o),
(435,309,o),
(435,221,c),
(435,133,o),
(382,81,o),
(294,81,c),
(206,81,o),
(154,133,o),
(154,221,c),
(154,309,o),
(206,361,o),
(294,361,c)
);
},
{
closed = 1;
nodes = (
(154,682,o),
(60,588,o),
(60,448,c),
(60,221,l),
(60,81,o),
(154,-13,o),
(294,-13,c),
(434,-13,o),
(528,81,o),
(528,221,c),
(528,361,o),
(434,455,o),
(294,455,c),
(239,455,o),
(192,440,o),
(154,414,c),
(154,448,l),
(154,536,o),
(206,588,o),
(294,588,c),
(342,588,o),
(379,573,o),
(403,544,c),
(496,575,l),
(457,642,o),
(385,682,o),
(294,682,c)
);
}
);
width = 588;
},
{
layerId = "13D2CB4F-7007-4A2A-A7B7-7C5789877F78";
shapes = (
{
closed = 1;
nodes = (
(374,374,o),
(434,312,o),
(434,214,c),
(434,117,o),
(374,54,o),
(281,54,c),
(188,54,o),
(127,117,o),
(127,214,c),
(127,312,o),
(188,374,o),
(281,374,c)
);
},
{
closed = 1;
nodes = (
(151,682,o),
(60,588,o),
(60,455,c),
(60,214,l),
(60,80,o),
(151,-13,o),
(281,-13,c),
(411,-13,o),
(501,80,o),
(501,214,c),
(501,348,o),
(411,441,o),
(281,441,c),
(219,441,o),
(166,420,o),
(127,383,c),
(127,455,l),
(127,552,o),
(188,615,o),
(281,615,c),
(338,615,o),
(383,591,o),
(409,551,c),
(473,572,l),
(437,640,o),
(368,682,o),
(281,682,c)
);
}
);
width = 561;
},
{
layerId = "FB38E465-C1A6-43CF-BE4B-F46E2783E3B9";
shapes = (
{
closed = 1;
nodes = (
(365,348,o),
(434,327,o),
(434,227,c),
(434,128,o),
(365,107,o),
(307,107,c),
(249,107,o),
(180,128,o),
(180,227,c),
(180,327,o),
(249,348,o),
(307,348,c)
);
},
{
closed = 1;
nodes = (
(159,682,o),
(60,585,o),
(60,441,c),
(60,221,l),
(63,81,o),
(161,-13,o),
(307,-13,c),
(455,-13,o),
(554,84,o),
(554,227,c),
(554,371,o),
(455,468,o),
(307,468,c),
(259,468,o),
(216,458,o),
(180,439,c),
(180,441,l),
(180,541,o),
(249,561,o),
(307,561,c),
(336,561,o),
(369,556,o),
(394,537,c),
(516,578,l),
(474,643,o),
(400,682,o),
(307,682,c)
);
}
);
width = 614;
}
);
unicode = 54;
},
{
glyphname = seven;
lastChange = "2022-05-05 19:41:32 +0000";
layers = (
{
layerId = m01;
shapes = (
{
closed = 1;
nodes = (
(17,668,l),
(17,574,l),
(371,574,l),
(92,0,l),
(196,0,l),
(478,582,l),
(478,668,l)
);
}
);
width = 512;
},
{
layerId = "13D2CB4F-7007-4A2A-A7B7-7C5789877F78";
shapes = (
{
closed = 1;
nodes = (
(17,668,l),
(17,601,l),
(398,601,l),
(107,0,l),
(181,0,l),
(478,613,l),
(478,668,l)
);
}
);
width = 512;
},
{
layerId = "FB38E465-C1A6-43CF-BE4B-F46E2783E3B9";
shapes = (
{
closed = 1;
nodes = (
(17,668,l),
(17,548,l),
(342,548,l),
(77,0,l),
(210,0,l),
(478,551,l),
(478,668,l)
);
}
);
width = 512;
}
);
unicode = 55;
},
{
glyphname = eight;
lastChange = "2022-05-05 19:41:48 +0000";
layers = (
{
layerId = m01;
shapes = (
{
closed = 1;
nodes = (
(249,81,o),
(153,91,o),
(153,191,c),
(153,290,o),
(249,301,o),
(290,301,c),
(331,301,o),
(427,290,o),
(427,191,c),
(427,91,o),
(331,81,o),
(290,81,c)
);
},
{
closed = 1;
nodes = (
(193,554,o),
(228,588,o),
(290,588,c),
(353,588,o),
(387,554,o),
(387,491,c),
(387,429,o),
(353,394,o),
(290,394,c),
(228,394,o),
(193,429,o),
(193,491,c)
);
},
{
closed = 1;
nodes = (
(463,391,o),
(480,437,o),
(480,491,c),
(480,605,o),
(404,682,o),
(290,682,c),
(176,682,o),
(100,605,o),
(100,491,c),
(100,437,o),
(117,391,o),
(148,358,c),
(92,323,o),
(60,265,o),
(60,191,c),
(60,67,o),
(150,-13,o),
(290,-13,c),
(430,-13,o),
(521,67,o),
(521,191,c),
(521,265,o),
(488,323,o),
(432,358,c)
);
}
);
width = 581;
},
{
layerId = "13D2CB4F-7007-4A2A-A7B7-7C5789877F78";
shapes = (
{
closed = 1;
nodes = (
(184,54,o),
(126,104,o),
(126,184,c),
(126,264,o),
(184,314,o),
(277,314,c),
(369,314,o),
(427,264,o),
(427,184,c),
(427,104,o),
(369,54,o),
(277,54,c)
);
},
{
closed = 1;
nodes = (
(166,570,o),
(209,615,o),
(277,615,c),
(345,615,o),
(387,570,o),
(387,498,c),
(387,426,o),
(345,381,o),
(277,381,c),
(209,381,o),
(166,426,o),
(166,498,c)
);
},
{
closed = 1;
nodes = (
(431,388,o),
(454,438,o),
(454,498,c),
(454,606,o),
(381,682,o),
(277,682,c),
(172,682,o),
(100,606,o),
(100,498,c),
(100,438,o),
(122,388,o),
(160,355,c),
(97,323,o),
(60,262,o),
(60,184,c),
(60,66,o),
(147,-13,o),
(277,-13,c),
(406,-13,o),
(494,66,o),
(494,184,c),
(494,262,o),
(456,323,o),
(393,355,c)
);
}
);
width = 554;
},
{
layerId = "FB38E465-C1A6-43CF-BE4B-F46E2783E3B9";
shapes = (
{
closed = 1;
nodes = (
(222,107,o),
(180,138,o),
(180,197,c),
(180,257,o),
(222,288,o),
(304,288,c),
(386,288,o),
(427,257,o),
(427,197,c),
(427,138,o),
(386,107,o),
(304,107,c)
);
},
{
closed = 1;
nodes = (
(220,520,o),
(230,561,o),
(304,561,c),
(378,561,o),
(387,520,o),
(387,485,c),
(387,449,o),
(378,408,o),
(304,408,c),
(230,408,o),
(220,449,o),
(220,485,c)
);
},
{
closed = 1;
nodes = (
(494,393,o),
(507,435,o),
(507,485,c),
(507,604,o),
(427,682,o),
(304,682,c),
(180,682,o),
(100,604,o),
(100,485,c),
(100,435,o),
(114,393,o),
(138,360,c),
(88,324,o),
(60,267,o),
(60,197,c),
(60,70,o),
(155,-13,o),
(304,-13,c),
(452,-13,o),
(547,70,o),
(547,197,c),
(547,267,o),
(519,324,o),
(469,360,c)
);
}
);
width = 607;
}
);
unicode = 56;
},
{
glyphname = nine;
lastChange = "2022-05-05 20:07:46 +0000";
layers = (
{
layerId = m01;
shapes = (
{
closed = 1;
nodes = (
(412,363,l),
(389,327,o),
(348,307,o),
(294,307,c),
(206,307,o),
(154,360,o),
(154,448,c),
(154,535,o),
(206,588,o),
(294,588,c),
(382,588,o),
(434,535,o),
(434,448,c),
(434,416,o),
(427,390,o),
(415,368,c)
);
},
{
closed = 1;
nodes = (
(154,681,o),
(60,587,o),
(60,448,c),
(60,308,o),
(154,214,o),
(294,214,c),
(304,214,o),
(315,214,o),
(325,215,c),
(197,0,l),
(306,0,l),
(501,330,l),
(518,364,o),
(528,403,o),
(528,448,c),
(528,587,o),
(434,681,o),
(294,681,c)
);
}
);
width = 588;
},
{
layerId = "13D2CB4F-7007-4A2A-A7B7-7C5789877F78";
shapes = (
{
closed = 1;
nodes = (
(407,356,l),
(381,317,o),
(337,294,o),
(280,294,c),
(187,294,o),
(127,357,o),
(127,454,c),
(127,552,o),
(187,615,o),
(280,615,c),
(374,615,o),
(434,552,o),
(434,454,c),
(434,422,o),
(427,394,o),
(415,370,c)
);
},
{
closed = 1;
nodes = (
(151,681,o),
(60,588,o),
(60,454,c),
(60,321,o),
(151,227,o),
(280,227,c),
(299,227,o),
(317,229,o),
(334,233,c),
(197,0,l),
(274,0,l),
(476,342,l),
(492,375,o),
(501,412,o),
(501,454,c),
(501,588,o),
(410,681,o),
(280,681,c)
);
}
);
width = 561;
},
{
layerId = "FB38E465-C1A6-43CF-BE4B-F46E2783E3B9";
shapes = (
{
closed = 1;
nodes = (
(415,367,l),
(390,330,o),
(346,321,o),
(307,321,c),
(249,321,o),
(180,342,o),
(180,441,c),
(180,540,o),
(249,561,o),
(307,561,c),
(365,561,o),
(434,540,o),
(434,441,c),
(434,414,o),
(429,393,o),
(421,376,c)
);
},
{
closed = 1;
nodes = (
(160,681,o),
(60,585,o),
(60,441,c),
(60,297,o),
(160,200,o),
(307,200,c),
(311,200,o),
(314,201,o),
(317,201,c),
(198,0,l),
(338,0,l),
(526,319,l),
(544,354,o),
(555,395,o),
(555,441,c),
(555,585,o),
(455,681,o),
(307,681,c)
);
}
);
width = 615;
}
);
unicode = 57;
},
{
glyphname = period;
lastChange = "2022-05-05 13:36:59 +0000";
layers = (
{
layerId = m01;
shapes = (
{
closed = 1;
nodes = (
(158,15,o),
(131,-12,o),
(98,-12,c),
(65,-12,o),
(38,15,o),
(38,48,c),
(38,81,o),
(65,108,o),
(98,108,c),
(131,108,o),
(158,81,o),
(158,48,c)
);
}
);
width = 196;
},
{
layerId = "FB38E465-C1A6-43CF-BE4B-F46E2783E3B9";
shapes = (
{
closed = 1;
nodes = (
(172,21,o),
(139,-12,o),
(99,-12,c),
(58,-12,o),
(25,21,o),
(25,61,c),
(25,102,o),
(58,135,o),
(99,135,c),
(139,135,o),
(172,102,o),
(172,61,c)
);
}
);
width = 197;
},
{
layerId = "13D2CB4F-7007-4A2A-A7B7-7C5789877F78";
shapes = (
{
closed = 1;
nodes = (
(159,15,o),
(132,-12,o),
(98,-12,c),
(65,-12,o),
(38,15,o),
(38,48,c),
(38,81,o),
(65,108,o),
(98,108,c),
(132,108,o),
(159,81,o),
(159,48,c)
);
}
);
width = 197;
}
);
unicode = 46;
},
{
glyphname = comma;
lastChange = "2022-05-05 13:51:56 +0000";
layers = (
{
layerId = m01;
shapes = (
{
closed = 1;
nodes = (
(156,83,o),
(130,108,o),
(98,108,c),
(65,108,o),
(38,81,o),
(38,48,c),
(38,17,o),
(62,-9,o),
(92,-12,c),
(88,-37,o),
(74,-60,o),
(39,-66,c),
(50,-132,l),
(98,-124,o),
(175,-90,o),
(158,51,c)
);
}
);
width = 198;
},
{
layerId = "FB38E465-C1A6-43CF-BE4B-F46E2783E3B9";
shapes = (
{
closed = 1;
nodes = (
(169,104,o),
(137,135,o),
(98,135,c),
(57,135,o),
(25,102,o),
(25,61,c),
(25,24,o),
(52,-6,o),
(88,-11,c),
(75,-51,o),
(46,-58,o),
(38,-59,c),
(51,-138,l),
(121,-127,o),
(186,-59,o),
(171,65,c)
);
}
);
width = 198;
},
{
layerId = "13D2CB4F-7007-4A2A-A7B7-7C5789877F78";
shapes = (
{
closed = 1;
nodes = (
(156,82,o),
(130,107,o),
(98,107,c),
(64,107,o),
(38,81,o),
(38,47,c),
(38,13,o),
(66,-16,o),
(103,-13,c),
(93,-64,o),
(55,-71,o),
(40,-73,c),
(49,-126,l),
(163,-107,o),
(163,3,o),
(158,50,c)
);
}
);
width = 198;
}
);
unicode = 44;
},
{
glyphname = colon;
lastChange = "2022-05-05 13:37:19 +0000";
layers = (
{
layerId = m01;
shapes = (
{
closed = 1;
nodes = (
(65,509,o),
(38,482,o),
(38,449,c),
(38,416,o),
(65,389,o),
(98,389,c),
(131,389,o),
(158,416,o),
(158,449,c),
(158,482,o),
(131,509,o),
(98,509,c)
);
},
{
closed = 1;
nodes = (
(158,15,o),
(131,-12,o),
(98,-12,c),
(65,-12,o),
(38,15,o),
(38,48,c),
(38,81,o),
(65,108,o),
(98,108,c),
(131,108,o),
(158,81,o),
(158,48,c)
);
}
);
width = 196;
},
{
layerId = "FB38E465-C1A6-43CF-BE4B-F46E2783E3B9";
shapes = (
{
closed = 1;
nodes = (
(57,509,o),
(25,476,o),
(25,435,c),
(25,395,o),
(57,362,o),
(98,362,c),
(139,362,o),
(171,395,o),
(171,435,c),
(171,476,o),
(139,509,o),
(98,509,c)
);
},
{
closed = 1;
nodes = (
(171,21,o),
(139,-12,o),
(98,-12,c),
(57,-12,o),
(25,21,o),
(25,61,c),
(25,102,o),
(57,135,o),
(98,135,c),
(139,135,o),
(171,102,o),
(171,61,c)
);
}
);
width = 196;
},
{
layerId = "13D2CB4F-7007-4A2A-A7B7-7C5789877F78";
shapes = (
{
closed = 1;
nodes = (
(65,509,o),
(38,482,o),
(38,449,c),
(38,416,o),
(65,389,o),
(99,389,c),
(132,389,o),
(159,416,o),
(159,449,c),
(159,482,o),
(132,509,o),
(99,509,c)
);
},
{
closed = 1;
nodes = (
(159,15,o),
(132,-12,o),
(99,-12,c),
(65,-12,o),
(38,15,o),
(38,48,c),
(38,81,o),
(65,108,o),
(99,108,c),
(132,108,o),
(159,81,o),
(159,48,c)
);
}
);
width = 197;
}
);
unicode = 58;
},
{
glyphname = semicolon;
lastChange = "2022-05-05 13:51:25 +0000";
layers = (
{
layerId = m01;
shapes = (
{
closed = 1;
nodes = (
(157,83,o),
(130,108,o),
(98,108,c),
(65,108,o),
(38,81,o),
(38,48,c),
(38,17,o),
(62,-9,o),
(92,-12,c),
(88,-37,o),
(74,-60,o),
(39,-66,c),
(50,-132,l),
(98,-124,o),
(175,-90,o),
(158,51,c)
);
},
{
closed = 1;
nodes = (
(38,482,o),
(65,509,o),
(98,509,c),
(131,509,o),
(158,482,o),
(158,449,c),
(158,416,o),
(131,389,o),
(98,389,c),
(65,389,o),
(38,416,o),
(38,449,c)
);
}
);
width = 198;
},
{
layerId = "FB38E465-C1A6-43CF-BE4B-F46E2783E3B9";
shapes = (
{
closed = 1;
nodes = (
(169,104,o),
(137,135,o),
(98,135,c),
(57,135,o),
(25,102,o),
(25,61,c),
(25,24,o),
(52,-6,o),
(88,-11,c),
(75,-51,o),
(46,-58,o),
(38,-59,c),
(51,-138,l),
(121,-127,o),
(186,-59,o),
(171,65,c)
);
},
{
closed = 1;
nodes = (
(25,476,o),
(57,509,o),
(98,509,c),
(139,509,o),
(172,476,o),
(172,435,c),
(172,395,o),
(139,362,o),
(98,362,c),
(57,362,o),
(25,395,o),
(25,435,c)
);
}
);
width = 198;
},
{
layerId = "13D2CB4F-7007-4A2A-A7B7-7C5789877F78";
shapes = (
{
closed = 1;
nodes = (
(156,83,o),
(130,108,o),
(98,108,c),
(64,108,o),
(38,82,o),
(38,48,c),
(38,14,o),
(66,-15,o),
(103,-12,c),
(93,-63,o),
(55,-70,o),
(40,-72,c),
(49,-125,l),
(163,-106,o),
(163,4,o),
(158,51,c)
);
},
{
closed = 1;
nodes = (
(38,482,o),
(64,509,o),
(98,509,c),
(131,509,o),
(158,482,o),
(158,449,c),
(158,416,o),
(131,389,o),
(98,389,c),
(64,389,o),
(38,416,o),
(38,449,c)
);
}
);
width = 198;
}
);
unicode = 59;
},
{
glyphname = exclam;
lastChange = "2022-05-05 13:35:28 +0000";
layers = (
{
layerId = m01;
shapes = (
{
closed = 1;
nodes = (
(196,14,o),
(169,-13,o),
(136,-13,cs),
(103,-13,o),
(76,14,o),
(76,47,cs),
(76,80,o),
(103,107,o),
(136,107,cs),
(169,107,o),
(196,80,o),
(196,47,cs)
);
},
{
closed = 1;
nodes = (
(89,201,l),
(183,201,l),
(183,668,l),
(89,668,l)
);
}
);
width = 272;
},
{
layerId = "FB38E465-C1A6-43CF-BE4B-F46E2783E3B9";
shapes = (
{
closed = 1;
nodes = (
(210,20,o),
(177,-13,o),
(137,-13,cs),
(96,-13,o),
(63,20,o),
(63,60,cs),
(63,101,o),
(96,134,o),
(137,134,cs),
(177,134,o),
(210,101,o),
(210,60,cs)
);
},
{
closed = 1;
nodes = (
(77,201,l),
(197,201,l),
(197,668,l),
(77,668,l)
);
}
);
width = 273;
},
{
layerId = "13D2CB4F-7007-4A2A-A7B7-7C5789877F78";
shapes = (
{
closed = 1;
nodes = (
(196,14,o),
(169,-13,o),
(136,-13,cs),
(103,-13,o),
(76,14,o),
(76,47,cs),
(76,80,o),
(103,107,o),
(136,107,cs),
(169,107,o),
(196,80,o),
(196,47,cs)
);
},
{
closed = 1;
nodes = (
(103,201,l),
(170,201,l),
(170,668,l),
(103,668,l)
);
}
);
width = 273;
}
);
unicode = 33;
},
{
glyphname = question;
lastChange = "2022-05-05 13:53:20 +0000";
layers = (
{
layerId = m01;
shapes = (
{
closed = 1;
nodes = (
(287,227,l),
(287,274,o),
(313,296,o),
(359,332,c),
(404,366,o),
(461,410,o),
(461,495,c),
(461,618,o),
(384,695,o),
(260,695,c),
(122,695,o),
(40,601,o),
(40,495,c),
(133,495,l),
(133,544,o),
(167,602,o),
(260,602,c),
(287,602,o),
(367,602,o),
(367,495,c),
(367,458,o),
(345,439,o),
(302,406,c),
(254,369,o),
(194,322,o),
(194,227,c),
(194,187,l),
(287,187,l)
);
},
{
closed = 1;
nodes = (
(300,14,o),
(274,-13,o),
(240,-13,c),
(207,-13,o),
(180,14,o),
(180,47,c),
(180,80,o),
(207,107,o),
(240,107,c),
(274,107,o),
(300,80,o),
(300,47,c)
);
}
);
width = 511;
},
{
layerId = "FB38E465-C1A6-43CF-BE4B-F46E2783E3B9";
shapes = (
{
closed = 1;
nodes = (
(314,227,l),
(314,268,o),
(337,287,o),
(381,321,c),
(426,356,o),
(488,403,o),
(488,495,c),
(488,626,o),
(406,708,o),
(274,708,c),
(121,708,o),
(40,601,o),
(40,495,c),
(161,495,l),
(161,538,o),
(190,588,o),
(274,588,c),
(318,588,o),
(368,577,o),
(368,495,c),
(368,465,o),
(351,450,o),
(308,416,c),
(260,379,o),
(194,329,o),
(194,227,c),
(194,187,l),
(314,187,l)
);
},
{
closed = 1;
nodes = (
(328,20,o),
(295,-13,o),
(254,-13,c),
(214,-13,o),
(181,20,o),
(181,60,c),
(181,101,o),
(214,134,o),
(254,134,c),
(295,134,o),
(328,101,o),
(328,60,c)
);
}
);
width = 538;
},
{
layerId = "13D2CB4F-7007-4A2A-A7B7-7C5789877F78";
shapes = (
{
closed = 1;
nodes = (
(260,227,l),
(260,280,o),
(289,305,o),
(337,342,c),
(382,377,o),
(434,416,o),
(434,495,c),
(434,612,o),
(364,682,o),
(247,682,c),
(116,682,o),
(40,594,o),
(40,495,c),
(106,495,l),
(106,555,o),
(150,615,o),
(247,615,c),
(327,615,o),
(367,574,o),
(367,495,c),
(367,451,o),
(340,429,o),
(296,395,c),
(251,360,o),
(193,316,o),
(193,227,c),
(193,187,l),
(260,187,l)
);
},
{
closed = 1;
nodes = (
(287,14,o),
(260,-13,o),
(227,-13,c),
(194,-13,o),
(167,14,o),
(167,47,c),
(167,80,o),
(194,107,o),
(227,107,c),
(260,107,o),
(287,80,o),
(287,47,c)
);
}
);
width = 484;
}
);
unicode = 63;
},
{
glyphname = asterisk;
lastChange = "2022-05-05 13:53:45 +0000";
layers = (
{
layerId = m01;
shapes = (
{
closed = 1;
nodes = (
(180,668,l),
(180,575,l),
(90,606,l),
(68,543,l),
(161,510,l),
(105,426,l),
(161,389,l),
(213,468,l),
(265,389,l),
(321,426,l),
(265,510,l),
(358,543,l),
(336,606,l),
(246,575,l),
(246,668,l)
);
}
);
width = 428;
},
{
layerId = "FB38E465-C1A6-43CF-BE4B-F46E2783E3B9";
shapes = (
{
closed = 1;
nodes = (
(175,668,l),
(175,584,l),
(94,613,l),
(68,537,l),
(153,507,l),
(101,430,l),
(168,386,l),
(215,456,l),
(262,386,l),
(328,430,l),
(277,507,l),
(362,537,l),
(335,613,l),
(255,584,l),
(255,668,l)
);
}
);
width = 432;
},
{
layerId = "13D2CB4F-7007-4A2A-A7B7-7C5789877F78";
shapes = (
{
closed = 1;
nodes = (
(184,668,l),
(184,566,l),
(86,600,l),
(68,550,l),
(169,514,l),
(108,423,l),
(152,393,l),
(210,480,l),
(268,393,l),
(313,423,l),
(252,514,l),
(353,550,l),
(335,600,l),
(237,566,l),
(237,668,l)
);
}
);
width = 423;
}
);
unicode = 42;
},
{
glyphname = numbersign;
lastChange = "2022-05-05 13:54:21 +0000";
layers = (
{
layerId = m01;
shapes = (
{
closed = 1;
nodes = (
(425,668,l),
(401,501,l),
(289,501,l),
(312,668,l),
(218,668,l),
(194,501,l),
(71,501,l),
(71,407,l),
(181,407,l),
(161,261,l),
(38,261,l),
(38,167,l),
(148,167,l),
(124,0,l),
(219,0,l),
(242,167,l),
(355,167,l),
(331,0,l),
(426,0,l),
(449,167,l),
(572,167,l),
(572,261,l),
(462,261,l),
(483,407,l),
(606,407,l),
(606,501,l),
(496,501,l),
(519,668,l)
);
},
{
closed = 1;
nodes = (
(276,407,l),
(388,407,l),
(368,261,l),
(255,261,l)
);
}
);
width = 644;
},
{
layerId = "FB38E465-C1A6-43CF-BE4B-F46E2783E3B9";
shapes = (
{
closed = 1;
nodes = (
(411,666,l),
(390,513,l),
(304,513,l),
(325,666,l),
(204,666,l),
(182,513,l),
(71,513,l),
(71,392,l),
(166,392,l),
(149,272,l),
(38,272,l),
(38,152,l),
(132,152,l),
(110,-2,l),
(232,-2,l),
(253,152,l),
(339,152,l),
(318,-2,l),
(439,-2,l),
(460,152,l),
(572,152,l),
(572,272,l),
(477,272,l),
(494,392,l),
(605,392,l),
(605,513,l),
(511,513,l),
(532,666,l)
);
},
{
closed = 1;
nodes = (
(287,392,l),
(373,392,l),
(356,272,l),
(270,272,l)
);
}
);
width = 643;
},
{
layerId = "13D2CB4F-7007-4A2A-A7B7-7C5789877F78";
shapes = (
{
closed = 1;
nodes = (
(439,668,l),
(413,488,l),
(274,488,l),
(299,668,l),
(232,668,l),
(206,488,l),
(72,488,l),
(72,421,l),
(197,421,l),
(173,247,l),
(38,247,l),
(38,180,l),
(163,180,l),
(138,0,l),
(205,0,l),
(231,180,l),
(370,180,l),
(345,0,l),
(413,0,l),
(438,180,l),
(573,180,l),
(573,247,l),
(447,247,l),
(471,421,l),
(606,421,l),
(606,488,l),
(481,488,l),
(506,668,l)
);
},
{
closed = 1;
nodes = (
(264,421,l),
(404,421,l),
(380,247,l),
(240,247,l)
);
}
);
width = 644;
}
);
unicode = 35;
},
{
glyphname = slash;
lastChange = "2022-05-05 13:54:47 +0000";
layers = (
{
layerId = m01;
shapes = (
{
closed = 1;
nodes = (
(276,668,l),
(15,0,l),
(116,0,l),
(376,668,l)
);
}
);
width = 391;
},
{
layerId = "FB38E465-C1A6-43CF-BE4B-F46E2783E3B9";
shapes = (
{
closed = 1;
nodes = (
(275,666,l),
(15,-2,l),
(144,-2,l),
(404,666,l)
);
}
);
width = 419;
},
{
layerId = "13D2CB4F-7007-4A2A-A7B7-7C5789877F78";
shapes = (
{
closed = 1;
nodes = (
(275,668,l),
(15,0,l),
(87,0,l),
(347,668,l)
);
}
);
width = 362;
}
);
unicode = 47;
},
{
glyphname = backslash;
lastChange = "2022-05-05 13:55:06 +0000";
layers = (
{
layerId = m01;
shapes = (
{
closed = 1;
nodes = (
(15,668,l),
(275,0,l),
(376,0,l),
(115,668,l)
);
}
);
width = 391;
},
{
layerId = "FB38E465-C1A6-43CF-BE4B-F46E2783E3B9";
shapes = (
{
closed = 1;
nodes = (
(15,668,l),
(275,0,l),
(376,0,l),
(115,668,l)
);
}
);
width = 391;
},
{
layerId = "13D2CB4F-7007-4A2A-A7B7-7C5789877F78";
shapes = (
{
closed = 1;
nodes = (
(15,668,l),
(276,0,l),
(348,0,l),
(87,668,l)
);
}
);
width = 363;
}
);
unicode = 92;
},
{
glyphname = hyphen;
lastChange = "2022-05-05 13:56:46 +0000";
layers = (
{
layerId = m01;
shapes = (
{
closed = 1;
nodes = (
(38,200,l),
(332,200,l),
(332,294,l),
(38,294,l)
);
}
);
width = 370;
},
{
layerId = "FB38E465-C1A6-43CF-BE4B-F46E2783E3B9";
shapes = (
{
closed = 1;
nodes = (
(38,187,l),
(332,187,l),
(332,308,l),
(38,308,l)
);
}
);
width = 370;
},
{
layerId = "13D2CB4F-7007-4A2A-A7B7-7C5789877F78";
shapes = (
{
closed = 1;
nodes = (
(38,214,l),
(332,214,l),
(332,281,l),
(38,281,l)
);
}
);
width = 370;
}
);
unicode = 45;
},
{
glyphname = underscore;
lastChange = "2022-05-05 13:57:16 +0000";
layers = (
{
layerId = m01;
shapes = (
{
closed = 1;
nodes = (
(10,-94,l),
(384,-94,l),
(384,0,l),
(10,0,l)
);
}
);
width = 394;
},
{
layerId = "FB38E465-C1A6-43CF-BE4B-F46E2783E3B9";
shapes = (
{
closed = 1;
nodes = (
(10,-120,l),
(385,-120,l),
(385,0,l),
(10,0,l)
);
}
);
width = 395;
},
{
layerId = "13D2CB4F-7007-4A2A-A7B7-7C5789877F78";
shapes = (
{
closed = 1;
nodes = (
(10,-67,l),
(384,-67,l),
(384,0,l),
(10,0,l)
);
}
);
width = 394;
}
);
unicode = 95;
},
{
glyphname = parenleft;
lastChange = "2022-05-05 14:01:27 +0000";
layers = (
{
layerId = m01;
shapes = (
{
closed = 1;
nodes = (
(199,-187,l),
(193,-179,o),
(50,22,o),
(50,255,c),
(50,513,o),
(167,688,o),
(172,695,c),
(249,642,l),
(248,641,o),
(144,483,o),
(144,255,c),
(144,53,o),
(274,-130,o),
(275,-132,c)
);
}
);
width = 310;
},
{
layerId = "FB38E465-C1A6-43CF-BE4B-F46E2783E3B9";
shapes = (
{
closed = 1;
nodes = (
(201,-195,l),
(195,-187,o),
(50,17,o),
(50,254,c),
(50,517,o),
(168,695,o),
(174,702,c),
(273,634,l),
(272,633,o),
(170,478,o),
(170,254,c),
(170,57,o),
(297,-123,o),
(299,-125,c)
);
}
);
width = 334;
},
{
layerId = "13D2CB4F-7007-4A2A-A7B7-7C5789877F78";
shapes = (
{
closed = 1;
nodes = (
(197,-180,l),
(191,-172,o),
(50,25,o),
(50,254,c),
(50,508,o),
(164,680,o),
(169,687,c),
(224,649,l),
(223,648,o),
(117,487,o),
(117,254,c),
(117,47,o),
(249,-139,o),
(251,-141,c)
);
}
);
width = 286;
}
);
unicode = 40;
},
{
glyphname = parenright;
lastChange = "2022-05-05 14:02:33 +0000";
layers = (
{
layerId = m01;
shapes = (
{
closed = 1;
nodes = (
(35,-133,l),
(36,-131,o),
(166,52,o),
(166,254,cs),
(166,482,o),
(62,640,o),
(61,642,c),
(138,694,l),
(143,687,o),
(260,512,o),
(260,254,cs),
(260,21,o),
(117,-180,o),
(111,-188,c)
);
}
);
width = 310;
},
{
layerId = "FB38E465-C1A6-43CF-BE4B-F46E2783E3B9";
shapes = (
{
closed = 1;
nodes = (
(35,-125,l),
(36,-123,o),
(164,57,o),
(164,254,cs),
(164,478,o),
(62,633,o),
(61,635,c),
(160,702,l),
(165,695,o),
(284,517,o),
(284,254,cs),
(284,17,o),
(139,-187,o),
(132,-195,c)
);
}
);
width = 334;
},
{
layerId = "13D2CB4F-7007-4A2A-A7B7-7C5789877F78";
shapes = (
{
closed = 1;
nodes = (
(35,-141,l),
(37,-138,o),
(169,48,o),
(169,254,cs),
(169,487,o),
(62,648,o),
(61,649,c),
(117,687,l),
(121,680,o),
(236,508,o),
(236,254,cs),
(236,25,o),
(95,-172,o),
(89,-180,c)
);
}
);
width = 286;
}
);
unicode = 41;
},
{
glyphname = braceleft;
lastChange = "2022-05-05 15:17:28 +0000";
layers = (
{
layerId = m01;
shapes = (
{
closed = 1;
nodes = (
(212,535,l),
(212,565,o),
(212,575,o),
(265,575,c),
(312,575,l),
(312,668,l),
(265,668,l),
(168,668,o),
(118,623,o),
(118,535,c),
(118,348,l),
(118,301,o),
(107,301,o),
(85,301,c),
(38,301,l),
(38,207,l),
(85,207,l),
(107,207,o),
(118,207,o),
(118,161,c),
(118,-26,l),
(118,-115,o),
(168,-160,o),
(265,-160,c),
(312,-160,l),
(312,-66,l),
(265,-66,l),
(212,-66,o),
(212,-56,o),
(212,-26,c),
(212,161,l),
(212,203,o),
(202,233,o),
(188,254,c),
(202,275,o),
(212,305,o),
(212,348,c)
);
}
);
width = 346;
},
{
layerId = "FB38E465-C1A6-43CF-BE4B-F46E2783E3B9";
shapes = (
{
closed = 1;
nodes = (
(224,501,l),
(224,543,o),
(239,548,o),
(264,548,c),
(324,548,l),
(324,668,l),
(264,668,l),
(167,668,o),
(104,603,o),
(104,501,c),
(104,348,l),
(104,317,o),
(102,314,o),
(84,314,c),
(24,314,l),
(24,194,l),
(84,194,l),
(102,194,o),
(104,192,o),
(104,161,c),
(104,14,l),
(104,-90,o),
(168,-160,o),
(264,-160,c),
(324,-160,l),
(324,-40,l),
(264,-40,l),
(250,-40,o),
(224,-40,o),
(224,14,c),
(224,161,l),
(224,202,o),
(215,232,o),
(202,254,c),
(215,276,o),
(224,306,o),
(224,348,c)
);
}
);
width = 358;
},
{
layerId = "13D2CB4F-7007-4A2A-A7B7-7C5789877F78";
shapes = (
{
closed = 1;
nodes = (
(185,535,l),
(185,583,o),
(204,602,o),
(252,602,c),
(285,602,l),
(285,668,l),
(252,668,l),
(167,668,o),
(118,620,o),
(118,535,c),
(118,348,l),
(118,297,o),
(103,288,o),
(71,288,c),
(38,288,l),
(38,221,l),
(71,221,l),
(103,221,o),
(118,212,o),
(118,161,c),
(118,-26,l),
(118,-111,o),
(167,-160,o),
(252,-160,c),
(285,-160,l),
(285,-93,l),
(252,-93,l),
(204,-93,o),
(185,-74,o),
(185,-26,c),
(185,161,l),
(185,205,o),
(174,235,o),
(157,254,c),
(174,273,o),
(185,303,o),
(185,348,c)
);
}
);
width = 319;
}
);
unicode = 123;
},
{
glyphname = braceright;
lastChange = "2022-05-05 14:03:31 +0000";
layers = (
{
layerId = m01;
shapes = (
{
closed = 1;
nodes = (
(266,301,l),
(243,301,o),
(232,301,o),
(232,348,c),
(232,535,l),
(232,623,o),
(183,668,o),
(85,668,c),
(38,668,l),
(38,575,l),
(85,575,l),
(139,575,o),
(139,565,o),
(139,535,c),
(139,348,l),
(139,305,o),
(148,275,o),
(163,254,c),
(148,233,o),
(139,203,o),
(139,161,c),
(139,-26,l),
(139,-56,o),
(139,-66,o),
(85,-66,c),
(38,-66,l),
(38,-160,l),
(85,-160,l),
(183,-160,o),
(232,-115,o),
(232,-26,c),
(232,161,l),
(232,207,o),
(243,207,o),
(266,207,c),
(312,207,l),
(312,301,l)
);
}
);
width = 346;
},
{
layerId = "FB38E465-C1A6-43CF-BE4B-F46E2783E3B9";
shapes = (
{
closed = 1;
nodes = (
(264,314,l),
(246,314,o),
(244,317,o),
(244,348,c),
(244,501,l),
(244,603,o),
(181,668,o),
(84,668,c),
(24,668,l),
(24,548,l),
(84,548,l),
(109,548,o),
(124,543,o),
(124,501,c),
(124,348,l),
(124,306,o),
(133,276,o),
(146,254,c),
(133,232,o),
(124,202,o),
(124,161,c),
(124,14,l),
(124,-40,o),
(98,-40,o),
(84,-40,c),
(24,-40,l),
(24,-160,l),
(84,-160,l),
(180,-160,o),
(244,-90,o),
(244,14,c),
(244,161,l),
(244,192,o),
(246,194,o),
(264,194,c),
(324,194,l),
(324,314,l)
);
}
);
width = 358;
},
{
layerId = "13D2CB4F-7007-4A2A-A7B7-7C5789877F78";
shapes = (
{
closed = 1;
nodes = (
(248,288,l),
(216,288,o),
(201,297,o),
(201,348,c),
(201,535,l),
(201,620,o),
(152,668,o),
(68,668,c),
(34,668,l),
(34,602,l),
(68,602,l),
(116,602,o),
(134,583,o),
(134,535,c),
(134,348,l),
(134,303,o),
(146,273,o),
(162,254,c),
(146,235,o),
(134,205,o),
(134,161,c),
(134,-26,l),
(134,-74,o),
(116,-93,o),
(68,-93,c),
(34,-93,l),
(34,-160,l),
(68,-160,l),
(152,-160,o),
(201,-111,o),
(201,-26,c),
(201,161,l),
(201,212,o),
(216,221,o),
(248,221,c),
(281,221,l),
(281,288,l)
);
}
);
width = 319;
}
);
unicode = 125;
},
{
glyphname = bracketleft;
lastChange = "2022-05-05 14:03:56 +0000";
layers = (
{
layerId = m01;
shapes = (
{
closed = 1;
nodes = (
(76,668,l),
(76,-160,l),
(283,-160,l),
(283,-66,l),
(169,-66,l),
(169,575,l),
(283,575,l),
(283,668,l)
);
}
);
width = 316;
},
{
layerId = "FB38E465-C1A6-43CF-BE4B-F46E2783E3B9";
shapes = (
{
closed = 1;
nodes = (
(68,668,l),
(68,-160,l),
(289,-160,l),
(289,-40,l),
(188,-40,l),
(188,548,l),
(289,548,l),
(289,668,l)
);
}
);
width = 322;
},
{
layerId = "13D2CB4F-7007-4A2A-A7B7-7C5789877F78";
shapes = (
{
closed = 1;
nodes = (
(76,668,l),
(76,-160,l),
(270,-160,l),
(270,-93,l),
(143,-93,l),
(143,602,l),
(270,602,l),
(270,668,l)
);
}
);
width = 303;
}
);
unicode = 91;
},
{
glyphname = bracketright;
lastChange = "2022-05-05 14:04:20 +0000";
layers = (
{
layerId = m01;
shapes = (
{
closed = 1;
nodes = (
(33,668,l),
(33,575,l),
(147,575,l),
(147,-66,l),
(33,-66,l),
(33,-160,l),
(240,-160,l),
(240,668,l)
);
}
);
width = 316;
},
{
layerId = "FB38E465-C1A6-43CF-BE4B-F46E2783E3B9";
shapes = (
{
closed = 1;
nodes = (
(33,668,l),
(33,548,l),
(133,548,l),
(133,-40,l),
(33,-40,l),
(33,-160,l),
(253,-160,l),
(253,668,l)
);
}
);
width = 321;
},
{
layerId = "13D2CB4F-7007-4A2A-A7B7-7C5789877F78";
shapes = (
{
closed = 1;
nodes = (
(33,668,l),
(33,602,l),
(160,602,l),
(160,-93,l),
(33,-93,l),
(33,-160,l),
(227,-160,l),
(227,668,l)
);
}
);
width = 303;
}
);
unicode = 93;
},
{
glyphname = quotedbl;
lastChange = "2022-05-16 20:48:59 +0000";
layers = (
{
layerId = m01;
shapes = (
{
closed = 1;
nodes = (
(40,448,l),
(134,448,l),
(134,668,l),
(40,668,l)
);
},
{
closed = 1;
nodes = (
(204,448,l),
(298,448,l),
(298,668,l),
(204,668,l)
);
}
);
width = 338;
},
{
layerId = "FB38E465-C1A6-43CF-BE4B-F46E2783E3B9";
shapes = (
{
closed = 1;
nodes = (
(40,448,l),
(160,448,l),
(160,668,l),
(40,668,l)
);
},
{
closed = 1;
nodes = (
(241,448,l),
(361,448,l),
(361,668,l),
(241,668,l)
);
}
);
width = 401;
},
{
layerId = "13D2CB4F-7007-4A2A-A7B7-7C5789877F78";
shapes = (
{
closed = 1;
nodes = (
(174,448,l),
(241,448,l),
(241,668,l),
(174,668,l)
);
},
{
closed = 1;
nodes = (
(40,448,l),
(107,448,l),
(107,668,l),
(40,668,l)
);
}
);
width = 281;
}
);
unicode = 34;
},
{
glyphname = quotesingle;
lastChange = "2022-05-05 14:28:27 +0000";
layers = (
{
layerId = m01;
shapes = (
{
closed = 1;
nodes = (
(40,448,l),
(134,448,l),
(134,668,l),
(40,668,l)
);
}
);
width = 174;
},
{
layerId = "FB38E465-C1A6-43CF-BE4B-F46E2783E3B9";
shapes = (
{
closed = 1;
nodes = (
(40,448,l),
(160,448,l),
(160,668,l),
(40,668,l)
);
}
);
width = 200;
},
{
layerId = "13D2CB4F-7007-4A2A-A7B7-7C5789877F78";
shapes = (
{
closed = 1;
nodes = (
(40,448,l),
(107,448,l),
(107,668,l),
(40,668,l)
);
}
);
width = 147;
}
);
unicode = 39;
},
{
glyphname = at;
lastChange = "2022-05-05 14:30:38 +0000";
layers = (
{
layerId = m01;
shapes = (
{
closed = 1;
nodes = (
(348,261,o),
(317,270,o),
(317,334,c),
(317,399,o),
(348,408,o),
(377,408,c),
(407,408,o),
(437,399,o),
(437,334,c),
(437,270,o),
(407,261,o),
(377,261,c)
);
},
{
closed = 1;
nodes = (
(203,682,o),
(50,560,o),
(50,334,c),
(50,127,o),
(192,-13,o),
(404,-13,c),
(404,81,l),
(212,81,o),
(144,212,o),
(144,334,c),
(144,493,o),
(238,588,o),
(397,588,c),
(548,588,o),
(638,498,o),
(638,348,c),
(638,267,o),
(592,231,o),
(560,231,c),
(553,231,o),
(531,231,o),
(531,268,c),
(531,495,l),
(437,495,l),
(437,491,l),
(420,498,o),
(399,501,o),
(377,501,c),
(283,501,o),
(224,437,o),
(224,334,c),
(224,231,o),
(283,167,o),
(377,167,c),
(409,167,o),
(437,175,o),
(460,188,c),
(464,182,o),
(469,176,o),
(473,172,c),
(496,150,o),
(526,137,o),
(560,137,c),
(603,137,o),
(647,158,o),
(678,194,c),
(703,221,o),
(731,270,o),
(731,348,c),
(731,551,o),
(600,682,o),
(397,682,c)
);
}
);
width = 781;
},
{
layerId = "FB38E465-C1A6-43CF-BE4B-F46E2783E3B9";
shapes = (
{
closed = 1;
nodes = (
(364,274,o),
(337,274,o),
(337,334,c),
(337,394,o),
(364,394,o),
(384,394,c),
(404,394,o),
(431,394,o),
(431,334,c),
(431,274,o),
(404,274,o),
(384,274,c)
);
},
{
closed = 1;
nodes = (
(189,682,o),
(50,545,o),
(50,334,c),
(50,123,o),
(192,-13,o),
(411,-13,c),
(411,107,l),
(194,107,o),
(170,266,o),
(170,334,c),
(170,479,o),
(256,561,o),
(404,561,c),
(549,561,o),
(631,483,o),
(631,348,c),
(631,269,o),
(588,244,o),
(566,244,c),
(560,244,o),
(551,244,o),
(551,267,c),
(551,495,l),
(470,495,l),
(470,494,l),
(446,507,o),
(417,515,o),
(384,515,c),
(281,515,o),
(217,446,o),
(217,334,c),
(217,223,o),
(281,154,o),
(384,154,c),
(414,154,o),
(441,160,o),
(463,171,c),
(466,168,o),
(468,165,o),
(471,163,c),
(495,138,o),
(529,124,o),
(566,124,c),
(614,124,o),
(661,146,o),
(695,185,c),
(721,214,o),
(752,266,o),
(752,348,c),
(752,551,o),
(615,682,o),
(404,682,c)
);
}
);
width = 802;
},
{
layerId = "13D2CB4F-7007-4A2A-A7B7-7C5789877F78";
shapes = (
{
closed = 1;
nodes = (
(332,248,o),
(290,257,o),
(290,334,c),
(290,412,o),
(332,421,o),
(364,421,c),
(395,421,o),
(437,412,o),
(437,334,c),
(437,257,o),
(395,248,o),
(364,248,c)
);
},
{
closed = 1;
nodes = (
(200,682,o),
(50,561,o),
(50,334,c),
(50,127,o),
(187,-13,o),
(390,-13,c),
(390,54,l),
(224,54,o),
(117,164,o),
(117,334,c),
(117,507,o),
(219,615,o),
(384,615,c),
(540,615,o),
(638,513,o),
(638,348,c),
(638,294,o),
(609,217,o),
(546,217,c),
(519,217,o),
(504,236,o),
(504,268,c),
(504,495,l),
(437,495,l),
(437,471,l),
(417,482,o),
(392,488,o),
(364,488,c),
(276,488,o),
(223,431,o),
(223,334,c),
(223,238,o),
(276,181,o),
(364,181,c),
(399,181,o),
(428,190,o),
(451,207,c),
(456,198,o),
(462,189,o),
(469,181,c),
(489,162,o),
(516,151,o),
(546,151,c),
(586,151,o),
(625,170,o),
(655,203,c),
(677,228,o),
(704,274,o),
(704,348,c),
(704,551,o),
(579,682,o),
(384,682,c)
);
}
);
width = 754;
}
);
unicode = 64;
},
{
glyphname = ampersand;
lastChange = "2022-05-05 14:59:24 +0000";
layers = (
{
layerId = m01;
shapes = (
{
closed = 1;
nodes = (
(213,81,o),
(131,81,o),
(131,167,c),
(131,215,o),
(169,247,o),
(232,287,c),
(394,126,l),
(354,95,o),
(303,81,o),
(252,81,c)
);
},
{
closed = 1;
nodes = (
(293,588,o),
(338,561,o),
(338,521,c),
(338,476,o),
(304,445,o),
(246,407,c),
(225,427,o),
(165,477,o),
(165,521,c),
(165,561,o),
(211,588,o),
(252,588,c)
);
},
{
closed = 1;
nodes = (
(522,130,l),
(549,176,o),
(566,232,o),
(566,301,c),
(472,301,l),
(472,262,o),
(465,228,o),
(452,200,c),
(313,339,l),
(376,382,o),
(432,436,o),
(432,521,c),
(432,618,o),
(341,682,o),
(252,682,c),
(164,682,o),
(71,619,o),
(71,521,c),
(71,448,o),
(125,393,o),
(164,355,c),
(98,311,o),
(38,256,o),
(38,167,c),
(38,53,o),
(116,-13,o),
(252,-13,c),
(325,-13,o),
(402,10,o),
(461,59,c),
(520,0,l),
(652,0,l)
);
}
);
width = 662;
},
{
layerId = "FB38E465-C1A6-43CF-BE4B-F46E2783E3B9";
shapes = (
{
closed = 1;
nodes = (
(159,107,o),
(159,143,o),
(159,167,c),
(159,206,o),
(190,235,o),
(244,270,c),
(381,133,l),
(337,110,o),
(289,107,o),
(265,107,c)
);
},
{
closed = 1;
nodes = (
(304,568,o),
(339,542,o),
(339,521,c),
(339,484,o),
(310,457,o),
(261,423,c),
(231,452,o),
(192,489,o),
(192,521,c),
(192,542,o),
(227,568,o),
(265,568,c)
);
},
{
closed = 1;
nodes = (
(551,134,l),
(577,179,o),
(593,234,o),
(593,301,c),
(473,301,l),
(473,271,o),
(468,246,o),
(461,224,c),
(347,337,l),
(407,380,o),
(459,436,o),
(459,521,c),
(459,621,o),
(359,688,o),
(265,688,c),
(150,688,o),
(72,602,o),
(72,521,c),
(72,450,o),
(119,394,o),
(157,356,c),
(95,313,o),
(38,256,o),
(38,167,c),
(38,100,o),
(68,-13,o),
(265,-13,c),
(338,-13,o),
(410,6,o),
(469,46,c),
(514,0,l),
(684,0,l)
);
}
);
width = 694;
},
{
layerId = "13D2CB4F-7007-4A2A-A7B7-7C5789877F78";
shapes = (
{
closed = 1;
nodes = (
(118,67,o),
(104,124,o),
(104,167,c),
(104,223,o),
(148,258,o),
(221,304,c),
(400,125,l),
(356,85,o),
(297,67,o),
(238,67,c)
);
},
{
closed = 1;
nodes = (
(138,569,o),
(190,601,o),
(238,601,c),
(286,601,o),
(338,569,o),
(338,521,c),
(338,467,o),
(299,433,o),
(230,389,c),
(192,426,o),
(138,472,o),
(138,521,c)
);
},
{
closed = 1;
nodes = (
(491,128,l),
(521,173,o),
(539,230,o),
(539,301,c),
(472,301,l),
(472,251,o),
(461,210,o),
(442,177,c),
(278,341,l),
(344,384,o),
(405,436,o),
(405,521,c),
(405,607,o),
(323,668,o),
(238,668,c),
(152,668,o),
(71,606,o),
(71,521,c),
(71,449,o),
(126,396,o),
(172,352,c),
(104,308,o),
(38,255,o),
(38,167,c),
(38,105,o),
(64,0,o),
(238,0,c),
(313,0,o),
(390,25,o),
(448,77,c),
(525,0,l),
(619,0,l)
);
}
);
width = 629;
}
);
unicode = 38;
},
{
glyphname = bar;
lastChange = "2022-05-05 15:00:59 +0000";
layers = (
{
layerId = m01;
shapes = (
{
closed = 1;
nodes = (
(76,-160,l),
(169,-160,l),
(169,668,l),
(76,668,l)
);
}
);
width = 245;
},
{
layerId = "FB38E465-C1A6-43CF-BE4B-F46E2783E3B9";
shapes = (
{
closed = 1;
nodes = (
(76,-160,l),
(196,-160,l),
(196,668,l),
(76,668,l)
);
}
);
width = 272;
},
{
layerId = "13D2CB4F-7007-4A2A-A7B7-7C5789877F78";
shapes = (
{
closed = 1;
nodes = (
(76,-160,l),
(143,-160,l),
(143,668,l),
(76,668,l)
);
}
);
width = 219;
}
);
unicode = 124;
},
{
glyphname = dollar;
lastChange = "2022-05-05 15:01:51 +0000";
layers = (
{
layerId = m01;
shapes = (
{
closed = 1;
nodes = (
(321,263,l),
(380,235,o),
(415,209,o),
(415,167,c),
(415,132,o),
(385,96,o),
(321,85,c)
);
},
{
closed = 1;
nodes = (
(134,537,o),
(163,573,o),
(227,584,c),
(227,406,l),
(168,434,o),
(134,460,o),
(134,501,c)
);
},
{
closed = 1;
nodes = (
(508,277,o),
(411,328,o),
(321,366,c),
(321,584,l),
(359,577,o),
(398,558,o),
(414,515,c),
(502,544,l),
(477,618,o),
(412,666,o),
(321,679,c),
(321,742,l),
(227,742,l),
(227,679,l),
(115,664,o),
(40,595,o),
(40,501,c),
(40,392,o),
(138,341,o),
(227,303,c),
(227,85,l),
(190,92,o),
(151,111,o),
(135,154,c),
(46,125,l),
(72,51,o),
(137,3,o),
(227,-10,c),
(227,-73,l),
(321,-73,l),
(321,-10,l),
(433,5,o),
(508,74,o),
(508,167,c)
);
}
);
width = 548;
},
{
layerId = "FB38E465-C1A6-43CF-BE4B-F46E2783E3B9";
shapes = (
{
closed = 1;
nodes = (
(347,242,l),
(390,219,o),
(414,198,o),
(414,167,c),
(414,139,o),
(383,122,o),
(347,114,c)
);
},
{
closed = 1;
nodes = (
(160,529,o),
(191,546,o),
(227,555,c),
(227,427,l),
(184,449,o),
(160,471,o),
(160,501,c)
);
},
{
closed = 1;
nodes = (
(534,282,o),
(438,335,o),
(347,374,c),
(347,556,l),
(387,547,o),
(406,529,o),
(414,510,c),
(527,548,l),
(507,603,o),
(459,662,o),
(347,678,c),
(347,742,l),
(227,742,l),
(227,677,l),
(113,660,o),
(40,594,o),
(40,501,c),
(40,387,o),
(136,333,o),
(227,294,c),
(227,113,l),
(187,122,o),
(168,140,o),
(160,158,c),
(47,121,l),
(67,65,o),
(115,6,o),
(227,-9,c),
(227,-73,l),
(347,-73,l),
(347,-9,l),
(461,8,o),
(534,75,o),
(534,167,c)
);
}
);
width = 574;
},
{
layerId = "13D2CB4F-7007-4A2A-A7B7-7C5789877F78";
shapes = (
{
closed = 1;
nodes = (
(294,283,l),
(368,250,o),
(414,219,o),
(414,166,c),
(414,100,o),
(357,65,o),
(294,55,c)
);
},
{
closed = 1;
nodes = (
(107,567,o),
(164,602,o),
(227,612,c),
(227,384,l),
(153,417,o),
(107,448,o),
(107,500,c)
);
},
{
closed = 1;
nodes = (
(481,271,o),
(386,318,o),
(294,356,c),
(294,612,l),
(362,602,o),
(398,562,o),
(413,518,c),
(477,539,l),
(449,624,o),
(373,669,o),
(294,679,c),
(294,741,l),
(227,741,l),
(227,679,l),
(117,667,o),
(40,596,o),
(40,500,c),
(40,396,o),
(136,349,o),
(227,311,c),
(227,55,l),
(160,65,o),
(123,105,o),
(108,149,c),
(44,128,l),
(72,43,o),
(148,-2,o),
(227,-12,c),
(227,-74,l),
(294,-74,l),
(294,-12,l),
(404,0,o),
(481,71,o),
(481,166,c)
);
}
);
width = 521;
}
);
unicode = 36;
},
{
glyphname = plus;
lastChange = "2022-05-05 13:55:48 +0000";
layers = (
{
layerId = m01;
shapes = (
{
closed = 1;
nodes = (
(253,494,l),
(253,294,l),
(53,294,l),
(53,200,l),
(253,200,l),
(253,0,l),
(347,0,l),
(347,200,l),
(547,200,l),
(547,294,l),
(347,294,l),
(347,494,l)
);
}
);
width = 600;
},
{
layerId = "FB38E465-C1A6-43CF-BE4B-F46E2783E3B9";
shapes = (
{
closed = 1;
nodes = (
(240,495,l),
(240,308,l),
(53,308,l),
(53,187,l),
(240,187,l),
(240,0,l),
(360,0,l),
(360,187,l),
(547,187,l),
(547,308,l),
(360,308,l),
(360,495,l)
);
}
);
width = 600;
},
{
layerId = "13D2CB4F-7007-4A2A-A7B7-7C5789877F78";
shapes = (
{
closed = 1;
nodes = (
(267,494,l),
(267,281,l),
(53,281,l),
(53,214,l),
(267,214,l),
(267,0,l),
(334,0,l),
(334,214,l),
(548,214,l),
(548,281,l),
(334,281,l),
(334,494,l)
);
}
);
width = 601;
}
);
unicode = 43;
},
{
glyphname = equal;
lastChange = "2022-05-05 15:10:50 +0000";
layers = (
{
layerId = m01;
shapes = (
{
closed = 1;
nodes = (
(53,294,l),
(548,294,l),
(548,388,l),
(53,388,l)
);
},
{
closed = 1;
nodes = (
(53,107,l),
(548,107,l),
(548,201,l),
(53,201,l)
);
}
);
width = 601;
},
{
layerId = "FB38E465-C1A6-43CF-BE4B-F46E2783E3B9";
shapes = (
{
closed = 1;
nodes = (
(53,281,l),
(547,281,l),
(547,401,l),
(53,401,l)
);
},
{
closed = 1;
nodes = (
(53,94,l),
(547,94,l),
(547,214,l),
(53,214,l)
);
}
);
width = 600;
},
{
layerId = "13D2CB4F-7007-4A2A-A7B7-7C5789877F78";
shapes = (
{
closed = 1;
nodes = (
(53,307,l),
(547,307,l),
(547,374,l),
(53,374,l)
);
},
{
closed = 1;
nodes = (
(53,120,l),
(547,120,l),
(547,187,l),
(53,187,l)
);
}
);
width = 600;
}
);
unicode = 61;
},
{
glyphname = greater;
lastChange = "2022-05-05 15:03:07 +0000";
layers = (
{
layerId = m01;
shapes = (
{
closed = 1;
nodes = (
(106,482,l),
(40,416,l),
(208,248,l),
(40,81,l),
(106,15,l),
(340,248,l)
);
}
);
width = 380;
},
{
layerId = "FB38E465-C1A6-43CF-BE4B-F46E2783E3B9";
shapes = (
{
closed = 1;
nodes = (
(125,491,l),
(40,406,l),
(197,248,l),
(40,91,l),
(125,6,l),
(367,248,l)
);
}
);
width = 407;
},
{
layerId = "13D2CB4F-7007-4A2A-A7B7-7C5789877F78";
shapes = (
{
closed = 1;
nodes = (
(87,472,l),
(40,425,l),
(217,248,l),
(40,71,l),
(87,24,l),
(311,248,l)
);
}
);
width = 351;
}
);
unicode = 62;
},
{
glyphname = less;
lastChange = "2022-05-05 15:03:14 +0000";
layers = (
{
layerId = m01;
shapes = (
{
closed = 1;
nodes = (
(273,482,l),
(40,248,l),
(273,15,l),
(340,81,l),
(172,248,l),
(340,416,l)
);
}
);
width = 380;
},
{
layerId = "FB38E465-C1A6-43CF-BE4B-F46E2783E3B9";
shapes = (
{
closed = 1;
nodes = (
(283,491,l),
(40,248,l),
(283,6,l),
(368,91,l),
(210,248,l),
(368,406,l)
);
}
);
width = 408;
},
{
layerId = "13D2CB4F-7007-4A2A-A7B7-7C5789877F78";
shapes = (
{
closed = 1;
nodes = (
(264,472,l),
(40,248,l),
(264,24,l),
(311,71,l),
(135,248,l),
(311,425,l)
);
}
);
width = 351;
}
);
unicode = 60;
},
{
glyphname = asciitilde;
lastChange = "2022-05-05 15:25:45 +0000";
layers = (
{
layerId = m01;
shapes = (
{
closed = 1;
nodes = (
(219,248,o),
(169,257,o),
(148,244,c),
(136,237,o),
(134,216,o),
(134,200,c),
(40,200,l),
(40,272,o),
(72,307,o),
(99,324,c),
(173,370,o),
(278,324,o),
(308,309,c),
(355,285,o),
(406,277,o),
(426,289,c),
(438,297,o),
(441,318,o),
(441,334,c),
(534,334,l),
(534,262,o),
(502,227,o),
(475,210,c),
(421,176,o),
(341,188,o),
(266,225,c)
);
}
);
width = 574;
},
{
layerId = "FB38E465-C1A6-43CF-BE4B-F46E2783E3B9";
shapes = (
{
closed = 1;
nodes = (
(227,235,o),
(182,241,o),
(168,232,c),
(163,229,o),
(160,217,o),
(160,200,c),
(40,200,l),
(40,278,o),
(75,316,o),
(105,335,c),
(185,384,o),
(295,336,o),
(327,320,c),
(372,298,o),
(418,292,o),
(432,300,c),
(437,304,o),
(440,316,o),
(440,333,c),
(561,333,l),
(561,255,o),
(525,216,o),
(495,198,c),
(433,161,o),
(354,174,o),
(273,213,c)
);
}
);
width = 601;
},
{
layerId = "13D2CB4F-7007-4A2A-A7B7-7C5789877F78";
shapes = (
{
closed = 1;
nodes = (
(214,259,o),
(155,273,o),
(128,256,c),
(114,247,o),
(107,228,o),
(107,200,c),
(40,200,l),
(40,266,o),
(68,297,o),
(92,312,c),
(163,356,o),
(268,307,o),
(289,297,c),
(333,275,o),
(392,261,o),
(420,278,c),
(434,287,o),
(441,305,o),
(441,334,c),
(507,334,l),
(507,268,o),
(479,236,o),
(455,221,c),
(385,178,o),
(279,227,o),
(259,237,c)
);
}
);
width = 547;
}
);
unicode = 126;
},
{
glyphname = asciicircum;
lastChange = "2022-05-05 15:13:41 +0000";
layers = (
{
layerId = m01;
shapes = (
{
closed = 1;
nodes = (
(260,718,l),
(53,370,l),
(134,322,l),
(260,535,l),
(387,322,l),
(468,370,l)
);
}
);
width = 521;
},
{
layerId = "FB38E465-C1A6-43CF-BE4B-F46E2783E3B9";
shapes = (
{
closed = 1;
nodes = (
(271,745,l),
(53,377,l),
(156,316,l),
(271,510,l),
(387,316,l),
(490,377,l)
);
}
);
width = 543;
},
{
layerId = "13D2CB4F-7007-4A2A-A7B7-7C5789877F78";
shapes = (
{
closed = 1;
nodes = (
(249,692,l),
(53,363,l),
(110,329,l),
(249,561,l),
(387,329,l),
(444,363,l)
);
}
);
width = 497;
}
);
unicode = 94;
},
{
glyphname = percent;
lastChange = "2022-05-05 15:12:02 +0000";
layers = (
{
layerId = m01;
shapes = (
{
closed = 1;
nodes = (
(765,680,l),
(688,733,l),
(167,-11,l),
(243,-65,l)
);
},
{
closed = 1;
nodes = (
(655,267,o),
(613,225,o),
(613,174,c),
(613,122,o),
(655,80,o),
(706,80,c),
(758,80,o),
(800,122,o),
(800,174,c),
(800,225,o),
(758,267,o),
(706,267,c)
);
},
{
closed = 1;
nodes = (
(603,-13,o),
(519,71,o),
(519,174,c),
(519,277,o),
(603,361,o),
(706,361,c),
(809,361,o),
(893,277,o),
(893,174,c),
(893,71,o),
(809,-13,o),
(706,-13,c)
);
},
{
closed = 1;
nodes = (
(174,588,o),
(132,546,o),
(132,494,c),
(132,443,o),
(174,401,o),
(225,401,c),
(277,401,o),
(319,443,o),
(319,494,c),
(319,546,o),
(277,588,o),
(225,588,c)
);
},
{
closed = 1;
nodes = (
(122,307,o),
(38,391,o),
(38,494,c),
(38,598,o),
(122,681,o),
(225,681,c),
(328,681,o),
(412,598,o),
(412,494,c),
(412,391,o),
(328,307,o),
(225,307,c)
);
}
);
width = 931;
},
{
layerId = "FB38E465-C1A6-43CF-BE4B-F46E2783E3B9";
shapes = (
{
closed = 1;
nodes = (
(796,681,l),
(698,750,l),
(161,-17,l),
(260,-85,l)
);
},
{
closed = 1;
nodes = (
(675,252,o),
(639,216,o),
(639,172,c),
(639,128,o),
(675,92,o),
(719,92,c),
(763,92,o),
(799,128,o),
(799,172,c),
(799,216,o),
(763,252,o),
(719,252,c)
);
},
{
closed = 1;
nodes = (
(609,-28,o),
(519,61,o),
(519,172,c),
(519,282,o),
(609,372,o),
(719,372,c),
(830,372,o),
(919,282,o),
(919,172,c),
(919,61,o),
(830,-28,o),
(719,-28,c)
);
},
{
closed = 1;
nodes = (
(194,573,o),
(158,537,o),
(158,493,c),
(158,448,o),
(194,412,o),
(238,412,c),
(282,412,o),
(318,448,o),
(318,493,c),
(318,537,o),
(282,573,o),
(238,573,c)
);
},
{
closed = 1;
nodes = (
(128,292,o),
(38,382,o),
(38,493,c),
(38,603,o),
(128,693,o),
(238,693,c),
(349,693,o),
(438,603,o),
(438,493,c),
(438,382,o),
(349,292,o),
(238,292,c)
);
}
);
width = 957;
},
{
layerId = "13D2CB4F-7007-4A2A-A7B7-7C5789877F78";
shapes = (
{
closed = 1;
nodes = (
(732,676,l),
(678,714,l),
(172,-9,l),
(227,-47,l)
);
},
{
closed = 1;
nodes = (
(634,280,o),
(586,232,o),
(586,173,c),
(586,114,o),
(634,66,o),
(693,66,c),
(752,66,o),
(799,114,o),
(799,173,c),
(799,232,o),
(752,280,o),
(693,280,c)
);
},
{
closed = 1;
nodes = (
(597,0,o),
(519,77,o),
(519,173,c),
(519,269,o),
(597,347,o),
(693,347,c),
(788,347,o),
(866,269,o),
(866,173,c),
(866,77,o),
(788,0,o),
(693,0,c)
);
},
{
closed = 1;
nodes = (
(153,601,o),
(105,553,o),
(105,494,c),
(105,435,o),
(153,387,o),
(212,387,c),
(271,387,o),
(319,435,o),
(319,494,c),
(319,553,o),
(271,601,o),
(212,601,c)
);
},
{
closed = 1;
nodes = (
(116,320,o),
(38,398,o),
(38,494,c),
(38,590,o),
(116,668,o),
(212,668,c),
(307,668,o),
(385,590,o),
(385,494,c),
(385,398,o),
(307,320,o),
(212,320,c)
);
}
);
width = 904;
}
);
unicode = 37;
},
{
glyphname = grave;
lastChange = "2022-05-05 15:17:46 +0000";
layers = (
{
layerId = m01;
shapes = (
{
closed = 1;
nodes = (
(119,734,l),
(53,668,l),
(212,508,l),
(279,574,l)
);
}
